<svg xmlns="http://www.w3.org/2000/svg" width="900" height="709" viewBox="0 0 900 709" fill="none">
<rect width="900" height="709" fill="white"/>
<path d="M467.957 569.263C596.193 569.263 700.15 465.296 700.15 337.045C700.15 208.794 596.193 104.827 467.957 104.827C339.72 104.827 235.764 208.794 235.764 337.045C235.764 465.296 339.72 569.263 467.957 569.263Z" fill="#DBE8EC"/>
<path d="M795.577 309.851V284.773C795.577 279.991 793.677 275.405 790.296 272.024C786.915 268.642 782.33 266.743 777.548 266.743H700.066C697.698 266.743 695.354 266.276 693.167 265.37C690.979 264.464 688.992 263.136 687.318 261.461C685.644 259.787 684.316 257.799 683.41 255.612C682.504 253.424 682.037 251.08 682.037 248.712V223.634C682.037 218.852 683.937 214.266 687.318 210.884C690.699 207.503 695.284 205.603 700.066 205.603H729.768C734.549 205.603 739.135 203.704 742.516 200.322C745.897 196.941 747.797 192.354 747.797 187.572V162.495C747.797 157.713 745.897 153.126 742.516 149.745C739.135 146.364 734.549 144.464 729.768 144.464H198.187C193.406 144.464 188.82 146.364 185.439 149.745C182.058 153.126 180.158 157.713 180.158 162.495V187.572C180.158 192.354 182.058 196.941 185.439 200.322C188.82 203.704 193.406 205.603 198.187 205.603C202.969 205.603 207.554 207.503 210.935 210.884C214.317 214.266 216.216 218.852 216.216 223.634V248.712C216.216 253.494 214.317 258.08 210.935 261.461C207.554 264.843 202.969 266.743 198.187 266.743H114.622C109.84 266.743 105.254 268.642 101.873 272.024C98.4922 275.405 96.5928 279.991 96.5928 284.773V309.851C96.5928 314.633 98.4923 319.219 101.873 322.601C105.254 325.982 109.84 327.882 114.622 327.882H197.363C199.731 327.882 202.075 328.348 204.262 329.254C206.45 330.161 208.437 331.489 210.111 333.163C211.786 334.837 213.114 336.825 214.02 339.013C214.926 341.2 215.392 343.545 215.392 345.913V370.991C215.834 393.938 165.782 389.021 155.825 389.021H155.759C150.977 389.021 146.391 390.921 143.01 394.303C139.629 397.684 137.73 402.27 137.73 407.052V432.13C137.73 436.912 139.629 441.498 143.01 444.88C146.391 448.261 150.977 450.161 155.759 450.161H201.255C206.037 450.161 210.622 452.06 214.003 455.442C217.384 458.823 219.284 463.41 219.284 468.192V493.269C219.284 498.051 217.384 502.638 214.003 506.019C210.622 509.401 206.037 511.3 201.255 511.3H150.144C145.362 511.3 140.777 513.2 137.396 516.581C134.015 519.963 132.115 524.549 132.115 529.331V554.409C132.115 559.191 134.015 563.777 137.396 567.158C140.777 570.54 145.362 572.44 150.144 572.44H725.601C730.382 572.44 734.968 570.54 738.349 567.158C741.73 563.777 743.63 559.191 743.63 554.409V529.331C743.63 524.549 741.73 519.963 738.349 516.581C734.968 513.2 730.382 511.3 725.601 511.3H696.123C691.341 511.3 686.755 509.401 683.374 506.019C679.993 502.638 678.094 498.051 678.094 493.269V468.192C678.094 463.409 679.993 458.823 683.374 455.442C686.755 452.06 691.341 450.161 696.123 450.161H746.827C751.609 450.161 756.195 448.261 759.576 444.88C762.957 441.498 764.856 436.912 764.856 432.13V407.052C764.856 402.27 762.957 397.684 759.576 394.303C756.195 390.921 751.609 389.021 746.827 389.021H721.8C717.018 389.021 712.433 387.122 709.052 383.74C705.671 380.359 703.771 375.773 703.771 370.991V345.913C703.771 343.545 704.237 341.2 705.143 339.013C706.049 336.825 707.377 334.837 709.052 333.163C710.726 331.489 712.713 330.161 714.901 329.254C717.088 328.348 719.432 327.882 721.8 327.882H777.548C782.33 327.882 786.915 325.982 790.296 322.601C793.677 319.219 795.577 314.633 795.577 309.851Z" fill="#DBE8EC" fill-opacity="0.39"/>
<path d="M471.707 270.734C507.616 270.734 536.727 241.62 536.727 205.707C536.727 169.793 507.616 140.68 471.707 140.68C435.797 140.68 406.687 169.793 406.687 205.707C406.687 241.62 435.797 270.734 471.707 270.734Z" fill="#6E8C78"/>
<path d="M448.688 192.166C448.687 192.086 448.687 192.005 448.687 191.925C448.687 187.386 450.028 182.948 452.543 179.169C455.058 175.39 458.633 172.439 462.82 170.687C467.007 168.935 471.619 168.459 476.075 169.321C480.531 170.182 484.633 172.342 487.866 175.528C491.098 178.714 493.317 182.785 494.243 187.229C495.169 191.673 494.76 196.291 493.069 200.503C491.378 204.716 488.479 208.334 484.738 210.904C480.996 213.473 476.579 214.879 472.041 214.945V235.851" stroke="#F3C301" stroke-width="4" stroke-linecap="round" stroke-linejoin="round"/>
<path d="M581.079 161.933H625.806" stroke="#6E8C78" stroke-width="3" stroke-miterlimit="10" stroke-linecap="round"/>
<path d="M581.079 174.827H625.806" stroke="#6E8C78" stroke-width="3" stroke-miterlimit="10" stroke-linecap="round"/>
<path d="M581.079 187.719H625.806" stroke="#6E8C78" stroke-width="3" stroke-miterlimit="10" stroke-linecap="round"/>
<path d="M164.981 406.792H209.709" stroke="#6E8C78" stroke-width="3" stroke-miterlimit="10" stroke-linecap="round"/>
<path d="M164.981 419.684H209.709" stroke="#6E8C78" stroke-width="3" stroke-miterlimit="10" stroke-linecap="round"/>
<path d="M164.981 432.577H209.709" stroke="#6E8C78" stroke-width="3" stroke-miterlimit="10" stroke-linecap="round"/>
<path d="M666.886 498.731H711.613" stroke="#6E8C78" stroke-width="3" stroke-miterlimit="10" stroke-linecap="round"/>
<path d="M666.886 511.625H711.613" stroke="#6E8C78" stroke-width="3" stroke-miterlimit="10" stroke-linecap="round"/>
<path d="M666.886 524.518H711.613" stroke="#6E8C78" stroke-width="3" stroke-miterlimit="10" stroke-linecap="round"/>
<path d="M720.799 435.236C731.357 435.236 739.916 426.676 739.916 416.117C739.916 405.557 731.357 396.997 720.799 396.997C710.241 396.997 701.682 405.557 701.682 416.117C701.682 426.676 710.241 435.236 720.799 435.236Z" fill="#D4DCD7"/>
<path d="M670.349 439.829C675.823 439.829 680.261 435.391 680.261 429.915C680.261 424.44 675.823 420.002 670.349 420.002C664.874 420.002 660.437 424.44 660.437 429.915C660.437 435.391 664.874 439.829 670.349 439.829Z" fill="#D4DCD7"/>
<path d="M695.52 383.496C703.342 383.496 709.682 377.155 709.682 369.332C709.682 361.51 703.342 355.169 695.52 355.169C687.699 355.169 681.358 361.51 681.358 369.332C681.358 377.155 687.699 383.496 695.52 383.496Z" fill="#D4DCD7"/>
<path d="M285.775 562.356C298.337 562.356 308.521 552.171 308.521 539.607C308.521 527.043 298.337 516.858 285.775 516.858C273.212 516.858 263.028 527.043 263.028 539.607C263.028 552.171 273.212 562.356 285.775 562.356Z" fill="#D4DCD7"/>
<path d="M242.309 535.255C248.853 535.255 254.157 529.95 254.157 523.406C254.157 516.861 248.853 511.556 242.309 511.556C235.766 511.556 230.461 516.861 230.461 523.406C230.461 529.95 235.766 535.255 242.309 535.255Z" fill="#D4DCD7"/>
<path d="M253.192 489.96C256.966 489.96 260.026 486.9 260.026 483.125C260.026 479.35 256.966 476.29 253.192 476.29C249.417 476.29 246.357 479.35 246.357 483.125C246.357 486.9 249.417 489.96 253.192 489.96Z" fill="#D4DCD7"/>
<path d="M291.026 504.347C300.074 504.347 307.41 497.011 307.41 487.961C307.41 478.911 300.074 471.575 291.026 471.575C281.977 471.575 274.642 478.911 274.642 487.961C274.642 497.011 281.977 504.347 291.026 504.347Z" fill="#D4DCD7"/>
<path d="M302.432 220.852C314.995 220.852 325.178 210.667 325.178 198.103C325.178 185.54 314.995 175.354 302.432 175.354C289.869 175.354 279.686 185.54 279.686 198.103C279.686 210.667 289.869 220.852 302.432 220.852Z" fill="#D4DCD7"/>
<path d="M303.355 163.57C309.899 163.57 315.203 158.265 315.203 151.721C315.203 145.176 309.899 139.871 303.355 139.871C296.811 139.871 291.507 145.176 291.507 151.721C291.507 158.265 296.811 163.57 303.355 163.57Z" fill="#D4DCD7"/>
<path d="M382.271 168.9C387.934 168.9 392.526 164.308 392.526 158.644C392.526 152.98 387.934 148.389 382.271 148.389C376.608 148.389 372.017 152.98 372.017 158.644C372.017 164.308 376.608 168.9 382.271 168.9Z" fill="#D4DCD7"/>
<path d="M344.964 155.513C348.739 155.513 351.799 152.453 351.799 148.678C351.799 144.903 348.739 141.843 344.964 141.843C341.19 141.843 338.13 144.903 338.13 148.678C338.13 152.453 341.19 155.513 344.964 155.513Z" fill="#D4DCD7"/>
<path d="M352.907 202.374C361.955 202.374 369.291 195.038 369.291 185.988C369.291 176.938 361.955 169.602 352.907 169.602C343.858 169.602 336.522 176.938 336.522 185.988C336.522 195.038 343.858 202.374 352.907 202.374Z" fill="#D4DCD7"/>
<path d="M665.804 322.987H280.553L267.991 291.137H665.804C666.299 291.137 666.789 291.235 667.246 291.424C667.703 291.614 668.119 291.891 668.468 292.241C668.818 292.591 669.096 293.007 669.285 293.464C669.475 293.921 669.572 294.411 669.572 294.906V319.218C669.572 319.713 669.475 320.203 669.285 320.661C669.096 321.118 668.818 321.533 668.468 321.883C668.119 322.233 667.703 322.511 667.246 322.7C666.789 322.89 666.299 322.987 665.804 322.987Z" fill="#265235"/>
<path d="M609.677 490.33H347.714C346.436 490.33 345.188 489.94 344.137 489.212C343.086 488.484 342.283 487.453 341.833 486.256L280.553 322.987H652.387L615.805 485.429C615.492 486.82 614.714 488.064 613.601 488.954C612.487 489.845 611.103 490.33 609.677 490.33Z" fill="#F3C301"/>
<path d="M633.548 406.663C606.749 408.382 579.949 409.281 553.15 409.892C539.751 410.275 526.351 410.36 512.951 410.585L472.752 410.814C445.953 410.839 419.154 410.535 392.355 409.904C365.555 409.296 338.756 408.392 311.957 406.663C338.756 404.933 365.555 404.029 392.355 403.421C419.154 402.819 445.953 402.516 472.752 402.511L512.951 402.74C526.351 402.965 539.751 403.05 553.15 403.433C579.949 404.044 606.749 404.944 633.548 406.663Z" fill="#6E8C78"/>
<path d="M581.128 322.987C579.601 337.59 577.268 352.012 574.692 366.379C572.083 380.739 569.171 395.03 565.957 409.254C562.76 423.481 559.268 437.642 555.481 451.736C553.57 458.779 551.592 465.807 549.479 472.805C548.386 476.296 547.346 479.798 546.21 483.279L545.335 485.924C544.991 486.894 544.432 487.774 543.699 488.498C543.011 489.178 542.18 489.696 541.266 490.014C540.353 490.331 539.379 490.439 538.418 490.33C539.286 490.228 540.122 489.939 540.868 489.482C541.613 489.026 542.251 488.414 542.738 487.688C543.193 487.019 543.492 486.257 543.614 485.458L543.963 482.773C544.43 479.141 544.991 475.531 545.5 471.909C546.591 464.681 547.816 457.483 549.109 450.301C551.719 435.941 554.634 421.65 557.855 407.429C561.063 393.204 564.559 379.044 568.341 364.949C572.173 350.865 576.247 336.835 581.128 322.987ZM431.427 490.33C430.426 490.439 429.415 490.313 428.472 489.962C427.529 489.612 426.68 489.047 425.993 488.311C425.319 487.537 424.778 486.657 424.393 485.705L423.151 483.133C421.497 479.704 419.938 476.24 418.327 472.795C415.173 465.878 412.147 458.914 409.184 451.926C403.284 437.941 397.675 423.847 392.355 409.643C387.019 395.446 381.967 381.143 377.196 366.733C372.467 352.308 367.976 337.794 364.266 322.987C371.215 336.578 377.383 350.463 383.312 364.437C389.212 378.423 394.818 392.519 400.131 406.724C405.456 420.926 410.505 435.23 415.279 449.638C417.646 456.85 419.95 464.085 422.125 471.369C423.179 475.023 424.284 478.658 425.295 482.329L426.052 485.082C426.225 485.946 426.537 486.776 426.976 487.54C427.46 488.31 428.112 488.961 428.883 489.444C429.653 489.927 430.523 490.23 431.427 490.33Z" fill="#6E8C78"/>
<path d="M412.76 618.714C427.093 618.714 438.712 607.094 438.712 592.76C438.712 578.425 427.093 566.805 412.76 566.805C398.428 566.805 386.809 578.425 386.809 592.76C386.809 607.094 398.428 618.714 412.76 618.714Z" fill="#265235"/>
<path d="M412.761 604.739C419.376 604.739 424.739 599.376 424.739 592.76C424.739 586.144 419.376 580.78 412.761 580.78C406.145 580.78 400.782 586.144 400.782 592.76C400.782 599.376 406.145 604.739 412.761 604.739Z" fill="#DBE8EC"/>
<path d="M562.464 618.714C576.796 618.714 588.415 607.094 588.415 592.76C588.415 578.425 576.796 566.805 562.464 566.805C548.131 566.805 536.512 578.425 536.512 592.76C536.512 607.094 548.131 618.714 562.464 618.714Z" fill="#265235"/>
<path d="M562.464 604.739C569.079 604.739 574.442 599.376 574.442 592.76C574.442 586.144 569.079 580.78 562.464 580.78C555.848 580.78 550.485 586.144 550.485 592.76C550.485 599.376 555.848 604.739 562.464 604.739Z" fill="#DBE8EC"/>
<path d="M475.051 322.987C477.598 336.83 479.319 350.722 480.792 364.629C482.231 378.538 483.361 392.466 484.181 406.412C485.018 420.357 485.554 434.319 485.788 448.3C485.979 462.284 485.916 476.282 485.02 490.331C482.463 476.488 480.738 462.596 479.268 448.689C477.829 434.78 476.704 420.852 475.89 406.906C475.064 392.96 474.532 378.997 474.294 365.016C474.106 351.033 474.166 337.034 475.051 322.987Z" fill="#6E8C78"/>
<path d="M606.375 553.631H371.609C370.768 553.631 369.948 553.376 369.256 552.9C368.563 552.424 368.031 551.749 367.73 550.965L231.764 196.496H159.745C158.643 196.496 157.586 196.058 156.807 195.279C156.028 194.5 155.591 193.443 155.591 192.341C155.591 191.24 156.028 190.183 156.807 189.404C157.586 188.625 158.643 188.187 159.745 188.187H234.619C235.459 188.187 236.28 188.442 236.972 188.918C237.665 189.394 238.196 190.069 238.497 190.854L374.464 545.323H606.375C607.477 545.323 608.534 545.76 609.313 546.539C610.092 547.318 610.529 548.375 610.529 549.477C610.529 550.579 610.092 551.635 609.313 552.415C608.534 553.194 607.477 553.631 606.375 553.631Z" fill="#265235"/>
<path d="M195.865 180.363H146.573C145.044 180.363 143.804 181.603 143.804 183.132V203.018C143.804 204.547 145.044 205.787 146.573 205.787H195.865C197.395 205.787 198.634 204.547 198.634 203.018V183.132C198.634 181.603 197.395 180.363 195.865 180.363Z" fill="#265235"/>
<path d="M471.706 252.443C473.771 252.443 475.445 250.769 475.445 248.704C475.445 246.639 473.771 244.965 471.706 244.965C469.642 244.965 467.968 246.639 467.968 248.704C467.968 250.769 469.642 252.443 471.706 252.443Z" fill="#F3C301"/>
</svg>