<svg width="65" height="60" viewBox="0 0 65 60" fill="none" xmlns="http://www.w3.org/2000/svg">
<mask id="mask0_449_3079" style="mask-type:luminance" maskUnits="userSpaceOnUse" x="0" y="0" width="65" height="60">
<path d="M65 0H0V59.725H65V0Z" fill="white"/>
</mask>
<g mask="url(#mask0_449_3079)">
<path d="M35.8166 10.2289L38.3237 7.9601C43.2469 3.50475 51.262 3.39448 56.2136 7.82415C58.0897 9.50637 59.3367 11.6782 59.779 14.0346C60.2213 16.391 59.8367 18.8136 58.6794 20.962C58.1242 21.9884 57.9373 23.1459 58.1442 24.2731C58.3515 25.4003 58.9424 26.4407 59.8347 27.2492C61.4756 25.7609 62.776 23.9946 63.6622 22.0513C64.5484 20.1079 65.003 18.0256 64.9997 15.9233C64.9962 13.821 64.5355 11.7399 63.6432 9.79883C62.7509 7.85776 61.4446 6.09482 59.7993 4.61071C52.8754 -1.61982 41.6367 -1.49583 34.7321 4.7522L10.8355 26.3772L8.87103 24.5994C3.86431 20.0685 3.83239 12.6622 8.92744 8.21186C10.8134 6.56961 13.2161 5.49755 15.8041 5.14368C18.392 4.78981 21.0374 5.17157 23.3754 6.23625C24.4425 6.73111 25.6551 6.90814 26.8401 6.74205C28.025 6.57597 29.1216 6.07527 29.9733 5.31145L30.0343 5.25661C30.0532 5.23957 30.0682 5.2193 30.0785 5.19695C30.0888 5.17463 30.0941 5.15068 30.0941 5.1265C30.0941 5.10231 30.0888 5.07836 30.0785 5.05604C30.0682 5.03372 30.0532 5.01345 30.0343 4.99638C26.7452 2.0947 22.3378 0.464833 17.7444 0.451655C13.1511 0.438481 8.73225 2.04303 5.42296 4.92578C-1.7056 11.1534 -1.68013 21.5093 5.32625 27.8499L29.2158 49.469L26.6781 51.7655C21.7548 56.2209 13.7394 56.3311 8.78818 51.9015C6.91195 50.2193 5.66513 48.0474 5.2228 45.6911C4.78051 43.3347 5.16491 40.9122 6.32205 38.7636C6.8772 37.7373 7.06431 36.5797 6.85725 35.4527C6.65016 34.3255 6.05922 33.2848 5.167 32.4764C3.52624 33.9649 2.22559 35.731 1.33936 37.6743C0.453125 39.6178 -0.00132216 41.6999 0.00197089 43.8024C0.00526396 45.9046 0.466233 47.9858 1.35855 49.9267C2.25087 51.8679 3.55706 53.6309 5.20246 55.1149C12.126 61.3457 23.3651 61.222 30.2696 54.9737L54.1971 33.3198L56.1691 35.1044C61.0923 39.5597 61.2141 46.8131 56.3193 51.2938C54.4605 52.992 52.0605 54.1201 49.4567 54.5207C46.8529 54.9209 44.176 54.5729 41.8017 53.5256C40.6673 53.0229 39.3875 52.8534 38.1415 53.0413C36.8956 53.2289 35.7454 53.7642 34.8521 54.5723C36.4968 56.0572 38.4484 57.2344 40.5957 58.0363C42.7434 58.8383 45.0441 59.2496 47.3674 59.2467C49.6904 59.2435 51.9902 58.8263 54.1349 58.0188C56.28 57.2113 58.228 56.0292 59.8679 54.5402C66.7531 48.2747 66.6161 38.1037 59.7119 31.8556L35.8166 10.2289ZM32.7831 46.2392L14.4039 29.6067L32.248 13.4587L50.6272 30.0912L32.7831 46.2392Z" fill="url(#paint0_linear_449_3079)"/>
</g>
<defs>
<linearGradient id="paint0_linear_449_3079" x1="32.5009" y1="0.00146484" x2="32.5009" y2="59.7245" gradientUnits="userSpaceOnUse">
<stop stop-color="#F3C301"/>
<stop offset="1" stop-color="#458985"/>
</linearGradient>
</defs>
</svg>
