<svg xmlns="http://www.w3.org/2000/svg" width="84" height="16" viewBox="0 0 84 16" fill="none">
<path d="M2.883 15.1834L4.123 9.87038L0 6.29838L5.431 5.82838L7.558 0.817383L9.685 5.82738L15.115 6.29738L10.993 9.86938L12.233 15.1824L7.558 12.3624L2.883 15.1834Z" fill="#141E15"/>
<path d="M19.883 15.1834L21.123 9.87038L17 6.29838L22.431 5.82838L24.558 0.817383L26.685 5.82738L32.115 6.29738L27.993 9.86938L29.233 15.1824L24.558 12.3624L19.883 15.1834Z" fill="#141E15"/>
<path d="M36.883 15.1834L38.123 9.87038L34 6.29838L39.431 5.82838L41.558 0.817383L43.685 5.82738L49.115 6.29738L44.993 9.86938L46.233 15.1824L41.558 12.3624L36.883 15.1834Z" fill="#141E15"/>
<path d="M53.883 15.1834L55.123 9.87038L51 6.29838L56.431 5.82838L58.558 0.817383L60.685 5.82738L66.115 6.29738L61.993 9.86938L63.233 15.1824L58.558 12.3624L53.883 15.1834Z" fill="#141E15"/>
<path d="M70.883 15.1834L72.123 9.87038L68 6.29838L73.431 5.82838L75.558 0.817383L77.685 5.82738L83.115 6.29738L78.993 9.86938L80.233 15.1824L75.558 12.3624L70.883 15.1834Z" fill="#141E15"/>
</svg>