<svg width="36" height="34" viewBox="0 0 36 34" fill="none" xmlns="http://www.w3.org/2000/svg">
<rect x="0.86095" y="1.28868" width="34.4872" height="31.4217" rx="3.44872" stroke="#265235" stroke-width="0.766382"/>
<path d="M22.7035 17.5744H13.5069C13.1927 17.5744 12.9321 17.3138 12.9321 16.9996C12.9321 16.6854 13.1927 16.4248 13.5069 16.4248H22.7035C23.0177 16.4248 23.2783 16.6854 23.2783 16.9996C23.2783 17.3138 23.0177 17.5744 22.7035 17.5744Z" fill="#141E15"/>
<path d="M18.1051 22.1723C17.7908 22.1723 17.5303 21.9118 17.5303 21.5975V12.401C17.5303 12.0867 17.7908 11.8262 18.1051 11.8262C18.4193 11.8262 18.6798 12.0867 18.6798 12.401V21.5975C18.6798 21.9118 18.4193 22.1723 18.1051 22.1723Z" fill="#141E15"/>
</svg>
