<svg width="33" height="33" viewBox="0 0 33 33" fill="none" xmlns="http://www.w3.org/2000/svg">
<path d="M18.314 25.7267C18.2663 25.6815 18.2279 25.6274 18.2012 25.5673C18.1744 25.5073 18.1597 25.4426 18.158 25.377C18.1562 25.3113 18.1674 25.2459 18.191 25.1845C18.2145 25.1232 18.2499 25.0671 18.2952 25.0194L26.2218 16.6594L5.43668 17.2125C5.30412 17.216 5.17558 17.1667 5.07935 17.0755C4.98312 16.9842 4.92708 16.8585 4.92355 16.7259C4.92003 16.5934 4.9693 16.4648 5.06054 16.3686C5.15178 16.2724 5.27751 16.2163 5.41008 16.2128L26.1952 15.6597L17.8351 7.73305C17.7875 7.68784 17.7492 7.63369 17.7224 7.57369C17.6957 7.51368 17.681 7.44899 17.6793 7.38332C17.6775 7.31765 17.6887 7.25227 17.7122 7.19093C17.7358 7.12958 17.7711 7.07347 17.8163 7.0258C17.8615 6.97812 17.9157 6.93982 17.9757 6.91307C18.0357 6.88632 18.1004 6.87166 18.1661 6.86991C18.2317 6.86816 18.2971 6.87937 18.3584 6.90289C18.4198 6.9264 18.4759 6.96177 18.5236 7.00698L27.7598 15.7644C27.8075 15.8096 27.8458 15.8637 27.8726 15.9237C27.8994 15.9837 27.9141 16.0484 27.9158 16.1141C27.9176 16.1798 27.9063 16.2452 27.8828 16.3065C27.8593 16.3679 27.8239 16.424 27.7786 16.4716L19.0212 25.7079C18.976 25.7556 18.9219 25.7939 18.8619 25.8207C18.8019 25.8474 18.7372 25.8621 18.6715 25.8639C18.6058 25.8656 18.5404 25.8544 18.4791 25.8309C18.4177 25.8073 18.3616 25.7719 18.314 25.7267Z" fill="black"/>
</svg>
