<svg width="14" height="8" viewBox="0 0 14 8" fill="none" xmlns="http://www.w3.org/2000/svg">
<path d="M7.04163 6.13569L1.17872 0.520877C1.13146 0.474641 1.0755 0.438236 1.01409 0.413769C0.952669 0.389301 0.887008 0.377256 0.820905 0.378332C0.754801 0.379407 0.689567 0.393582 0.628978 0.420035C0.568388 0.446489 0.513647 0.484695 0.467921 0.532444C0.422194 0.580193 0.386392 0.636536 0.362584 0.698213C0.338777 0.75989 0.327438 0.825677 0.329223 0.891765C0.331008 0.957853 0.345881 1.02293 0.372983 1.08323C0.400085 1.14354 0.438877 1.19786 0.487114 1.24307L6.70138 7.19377C6.79544 7.28383 6.92093 7.33365 7.05116 7.33261C7.18139 7.33157 7.30607 7.27977 7.39869 7.18821L13.5174 1.13928C13.5649 1.09331 13.6028 1.03837 13.6289 0.977644C13.6551 0.916918 13.6689 0.851611 13.6696 0.785503C13.6704 0.719395 13.658 0.653796 13.6332 0.592507C13.6084 0.531217 13.5717 0.475451 13.5252 0.428437C13.4788 0.381422 13.4234 0.344093 13.3624 0.318608C13.3014 0.293124 13.236 0.279989 13.1698 0.279967C13.1037 0.279944 13.0383 0.293034 12.9772 0.318477C12.9162 0.34392 12.8609 0.381211 12.8143 0.428194L7.04163 6.13569Z" fill="#898E8A"/>
</svg>
