<svg width="65" height="65" viewBox="0 0 65 65" fill="none" xmlns="http://www.w3.org/2000/svg">
<path d="M9.99917 25.1062C9.61639 25.1062 9.295 24.9753 9.035 24.7135C8.775 24.4535 8.645 24.1321 8.645 23.7493C8.645 23.3648 8.775 23.0425 9.035 22.7825C9.295 22.5243 9.61639 22.3952 9.99917 22.3952H18.4383C19.3032 22.3952 20.0751 22.648 20.754 23.1535C21.431 23.6591 21.9095 24.3091 22.1894 25.1035L9.99917 25.1062ZM15.5215 49.3729C17.9517 49.3729 20.0173 48.5225 21.7181 46.8216C23.4208 45.1208 24.2721 43.0553 24.2721 40.625C24.2721 38.1947 23.4208 36.1291 21.7181 34.4283C20.0173 32.7257 17.9517 31.8743 15.5215 31.8743C13.0912 31.8743 11.0247 32.7257 9.32209 34.4283C7.62125 36.1291 6.77084 38.1947 6.77084 40.625C6.77084 43.0553 7.62125 45.1208 9.32209 46.8216C11.0247 48.5243 13.0912 49.3756 15.5215 49.3756M52.8125 49.3756C54.2876 49.3756 55.5597 48.8412 56.6285 47.7723C57.6956 46.707 58.2292 45.4359 58.2292 43.9589C58.2292 42.482 57.6956 41.21 56.6285 40.1429C55.5597 39.0758 54.2876 38.5423 52.8125 38.5423C51.3374 38.5423 50.0653 39.0758 48.9965 40.1429C47.9294 41.21 47.3958 42.482 47.3958 43.9589C47.3958 45.4341 47.9294 46.7052 48.9965 47.7723C50.0653 48.8412 51.3374 49.3756 52.8125 49.3756ZM15.5079 43.6448C14.6665 43.6448 13.9542 43.3505 13.371 42.7618C12.7897 42.1714 12.499 41.4546 12.499 40.6114C12.499 39.7682 12.7942 39.0568 13.3846 38.4773C13.975 37.8959 14.6909 37.6052 15.5323 37.6052C16.3737 37.6052 17.086 37.8995 17.6692 38.4881C18.2506 39.0785 18.5413 39.7953 18.5413 40.6385C18.5413 41.4817 18.2469 42.1931 17.6583 42.7727C17.0679 43.3541 16.3511 43.6448 15.5079 43.6448ZM54.0637 35.8989C54.6108 36.0217 55.0776 36.1535 55.464 36.2943C55.8485 36.4352 56.2846 36.6735 56.7721 37.0093V22.7093C56.7721 21.505 56.3433 20.475 55.4856 19.6191C54.6298 18.7615 53.6006 18.3327 52.3981 18.3327H38.4583L35.6146 15.3535L39.4063 11.5618L37.5104 9.66602L27.8958 19.2806L29.9271 21.1764L33.7188 17.3848L36.5625 20.2285V24.375C36.5625 26.4369 35.8285 28.2028 34.3606 29.6725C32.8909 31.1404 31.1251 31.8743 29.0631 31.8743H22.9017C23.4181 32.3293 23.836 32.7546 24.1556 33.15C24.4752 33.5472 24.83 34.0257 25.22 34.5854H29.0631C31.9033 34.5854 34.3137 33.5932 36.2944 31.6089C38.2751 29.6246 39.2672 27.2133 39.2708 24.375V21.0437H52.3954C52.8829 21.0437 53.2819 21.199 53.5925 21.5096C53.9067 21.8219 54.0637 22.2218 54.0637 22.7093V35.8989ZM44.9096 41.9791C45.0775 41.4194 45.2481 40.9455 45.4215 40.5573C45.593 40.1709 45.862 39.7421 46.2285 39.2708H26.8667C26.9443 39.7908 26.9831 40.2422 26.9831 40.625C26.9831 41.0078 26.9443 41.4591 26.8667 41.9791H44.9096ZM52.8125 52.0812C50.5411 52.0812 48.6191 51.2958 47.0465 49.725C45.4738 48.1541 44.6875 46.2312 44.6875 43.9562C44.6875 41.6866 45.4738 39.7655 47.0465 38.1929C48.6191 36.6203 50.5411 35.8339 52.8125 35.8339C55.0839 35.8339 57.0059 36.6193 58.5785 38.1902C60.1512 39.761 60.9375 41.6839 60.9375 43.9589C60.9375 46.2285 60.1512 48.1505 58.5785 49.725C57.0059 51.2994 55.0839 52.0848 52.8125 52.0812ZM15.5188 52.0812C12.35 52.0812 9.64799 50.9645 7.41271 48.731C5.17743 46.4975 4.0607 43.7955 4.0625 40.625C4.0625 37.4544 5.18014 34.7524 7.41542 32.5189C9.6507 30.2855 12.3527 29.1678 15.5215 29.166C18.692 29.166 21.394 30.2837 23.6275 32.5189C25.861 34.7542 26.9786 37.4562 26.9804 40.625C26.9804 43.7955 25.8628 46.4975 23.6275 48.731C21.3922 50.9645 18.6902 52.0821 15.5215 52.0839" fill="#265235"/>
</svg>
