<svg width="65" height="65" viewBox="0 0 65 65" fill="none" xmlns="http://www.w3.org/2000/svg">
<path d="M28.4375 33.6984L23.1766 28.4375L20.3125 31.3016L28.4375 39.4266L44.6875 23.1766L41.8234 20.3125L28.4375 33.6984Z" fill="#265235"/>
<path d="M32.5 60.9375L19.955 54.2486C16.3787 52.3459 13.3879 49.5053 11.3038 46.0316C9.2196 42.5579 8.12071 38.5822 8.12501 34.5312V8.125C8.12609 7.04789 8.55445 6.0152 9.31608 5.25357C10.0777 4.49193 11.1104 4.06358 12.1875 4.0625H52.8125C53.8896 4.06358 54.9223 4.49193 55.6839 5.25357C56.4456 6.0152 56.8739 7.04789 56.875 8.125V34.5312C56.8793 38.5822 55.7804 42.5579 53.6963 46.0316C51.6121 49.5053 48.6214 52.3459 45.045 54.2486L32.5 60.9375ZM12.1875 8.125V34.5312C12.1841 37.8459 13.0835 41.0988 14.7891 43.9409C16.4946 46.783 18.942 49.107 21.8684 50.6634L32.5 56.3327L43.1316 50.6655C46.0583 49.1089 48.5059 46.7846 50.2115 43.9421C51.9171 41.0996 52.8162 37.8462 52.8125 34.5312V8.125H12.1875Z" fill="#265235"/>
</svg>
