<svg width="65" height="65" viewBox="0 0 65 65" fill="none" xmlns="http://www.w3.org/2000/svg">
<path d="M49.2598 43.4078L53.7164 46.3775C54.1485 46.6657 54.6745 46.7775 55.1864 46.6898C55.6983 46.6022 56.1572 46.3218 56.4688 45.9062L62.5625 37.7812L59.3125 35.3438L54.3705 41.9331L49.8773 38.935C49.4386 38.6419 48.9031 38.5311 48.3841 38.6258C47.8651 38.7206 47.4034 39.0136 47.0966 39.4428L40.625 48.5042V32.5H36.5625V52.8125C36.5636 53.8896 36.9919 54.9223 37.7536 55.6839C38.5152 56.4456 39.5479 56.8739 40.625 56.875H60.9375V52.8125H42.5405L49.2598 43.4078ZM4.0625 42.6562H32.5V46.7188H4.0625V42.6562ZM4.0625 52.8125H32.5V56.875H4.0625V52.8125ZM22.3438 32.5V22.3438H24.375C26.5291 22.3411 28.5941 21.4842 30.1173 19.961C31.6404 18.4379 32.4973 16.3728 32.5 14.2188V8.125H26.4062C24.3262 8.12841 22.3276 8.93382 20.8264 10.3736C19.7746 8.46375 18.2298 6.87087 16.3532 5.76089C14.4765 4.6509 12.3366 4.06441 10.1562 4.0625H4.0625V10.1562C4.06626 13.3874 5.35151 16.4852 7.63629 18.77C9.92108 21.0547 13.0188 22.34 16.25 22.3438H18.2812V32.5H4.0625V36.5625H32.5V32.5H22.3438ZM26.4062 12.1875H28.4375V14.2188C28.4364 15.2959 28.0081 16.3285 27.2464 17.0902C26.4848 17.8518 25.4521 18.2802 24.375 18.2812H22.3438V16.25C22.3448 15.1729 22.7732 14.1402 23.5348 13.3786C24.2964 12.6169 25.3291 12.1886 26.4062 12.1875ZM16.25 18.2812C14.0959 18.2786 12.0309 17.4217 10.5077 15.8985C8.98457 14.3754 8.12769 12.3103 8.125 10.1562V8.125H10.1562C12.3103 8.12769 14.3754 8.98457 15.8985 10.5077C17.4217 12.0309 18.2786 14.0959 18.2812 16.25V18.2812H16.25Z" fill="#F5F5F5"/>
</svg>
