<svg width="65" height="65" viewBox="0 0 65 65" fill="none" xmlns="http://www.w3.org/2000/svg">
<path fill-rule="evenodd" clip-rule="evenodd" d="M12.132 4.3335H11.9154C10.923 4.3335 10.0694 4.3335 9.31536 4.51116C8.14812 4.79008 7.08088 5.3867 6.2319 6.23492C5.38291 7.08314 4.78533 8.14984 4.50536 9.31683C4.33203 10.0708 4.33203 10.9202 4.33203 11.9168V22.7502C4.33203 23.7425 4.33203 24.5962 4.5097 25.3502C4.78861 26.5174 5.38523 27.5846 6.23345 28.4336C7.08167 29.2826 8.14837 29.8802 9.31536 30.1602C10.0694 30.3335 10.9187 30.3335 11.9154 30.3335H22.7487C23.741 30.3335 24.5947 30.3335 25.3487 30.1558C26.5159 29.8769 27.5832 29.2803 28.4322 28.4321C29.2811 27.5839 29.8787 26.5172 30.1587 25.3502C30.332 24.5962 30.332 23.7468 30.332 22.7502V11.9168C30.332 10.9245 30.332 10.0708 30.1544 9.31683C29.8754 8.14959 29.2788 7.08235 28.4306 6.23336C27.5824 5.38438 26.5157 4.7868 25.3487 4.50683C24.5947 4.3335 23.7454 4.3335 22.7487 4.3335H22.532H12.132ZM10.325 8.7275C10.5114 8.68416 10.8017 8.66683 12.132 8.66683H22.532C23.8667 8.66683 24.1527 8.67983 24.339 8.7275C24.7283 8.82058 25.0842 9.01967 25.3672 9.30268C25.6502 9.58569 25.8493 9.94157 25.9424 10.3308C25.9857 10.5128 25.9987 10.7988 25.9987 12.1335V22.5335C25.9987 23.8682 25.9857 24.1542 25.938 24.3405C25.8449 24.7298 25.6459 25.0856 25.3628 25.3686C25.0798 25.6517 24.724 25.8507 24.3347 25.9438C24.157 25.9828 23.871 26.0002 22.532 26.0002H12.132C10.7974 26.0002 10.5114 25.9872 10.325 25.9395C9.93577 25.8464 9.5799 25.6473 9.29688 25.3643C9.01387 25.0813 8.81478 24.7254 8.7217 24.3362C8.6827 24.1585 8.66536 23.8725 8.66536 22.5335V12.1335C8.66536 10.7988 8.67836 10.5128 8.72603 10.3265C8.81912 9.93723 9.01821 9.58136 9.30122 9.29835C9.58423 9.01534 9.9401 8.81625 10.3294 8.72316M42.4654 4.3335H42.2487C41.2564 4.3335 40.4027 4.3335 39.6487 4.51116C38.4814 4.79008 37.4142 5.3867 36.5652 6.23492C35.7162 7.08314 35.1187 8.14984 34.8387 9.31683C34.6654 10.0708 34.6654 10.9202 34.6654 11.9168V22.7502C34.6654 23.7425 34.6654 24.5962 34.843 25.3502C35.1219 26.5174 35.7186 27.5846 36.5668 28.4336C37.415 29.2826 38.4817 29.8802 39.6487 30.1602C40.4027 30.3335 41.252 30.3335 42.2487 30.3335H53.082C54.0744 30.3335 54.928 30.3335 55.682 30.1558C56.8493 29.8769 57.9165 29.2803 58.7655 28.4321C59.6145 27.5839 60.2121 26.5172 60.492 25.3502C60.6654 24.5962 60.6654 23.7468 60.6654 22.7502V11.9168C60.6654 10.9245 60.6654 10.0708 60.4877 9.31683C60.2088 8.14959 59.6122 7.08235 58.7639 6.23336C57.9157 5.38438 56.849 4.7868 55.682 4.50683C54.928 4.3335 54.0787 4.3335 53.082 4.3335H52.8654H42.4654ZM40.6584 8.7275C40.8447 8.68416 41.135 8.66683 42.4654 8.66683H52.8654C54.2 8.66683 54.486 8.67983 54.6724 8.7275C55.0616 8.82058 55.4175 9.01967 55.7005 9.30268C55.9835 9.58569 56.1826 9.94157 56.2757 10.3308C56.319 10.5128 56.332 10.7988 56.332 12.1335V22.5335C56.332 23.8682 56.3147 24.1542 56.2714 24.3405C56.1783 24.7298 55.9792 25.0856 55.6962 25.3686C55.4132 25.6517 55.0573 25.8507 54.668 25.9438C54.486 25.9872 54.2 26.0002 52.8654 26.0002H42.4654C41.1307 26.0002 40.8447 25.9872 40.6584 25.9395C40.2691 25.8464 39.9132 25.6473 39.6302 25.3643C39.3472 25.0813 39.1481 24.7254 39.055 24.3362C39.016 24.1585 38.9987 23.8725 38.9987 22.5335V12.1335C38.9987 10.7988 39.0117 10.5128 39.0594 10.3265C39.1524 9.93723 39.3515 9.58136 39.6345 9.29835C39.9176 9.01534 40.2734 8.81625 40.6627 8.72316M11.9154 34.6668H22.7487C23.741 34.6668 24.5947 34.6668 25.3487 34.8445C26.5159 35.1234 27.5832 35.72 28.4322 36.5683C29.2811 37.4165 29.8787 38.4832 30.1587 39.6502C30.332 40.4042 30.332 41.2535 30.332 42.2502V53.0835C30.332 54.0758 30.332 54.9295 30.1544 55.6835C29.8754 56.8507 29.2788 57.918 28.4306 58.767C27.5824 59.6159 26.5157 60.2135 25.3487 60.4935C24.5947 60.6668 23.7454 60.6668 22.7487 60.6668H11.9154C10.923 60.6668 10.0694 60.6668 9.31536 60.4892C8.14812 60.2102 7.08088 59.6136 6.2319 58.7654C5.38291 57.9172 4.78533 56.8505 4.50536 55.6835C4.33203 54.9295 4.33203 54.0802 4.33203 53.0835V42.2502C4.33203 41.2578 4.33203 40.4042 4.5097 39.6502C4.78861 38.4829 5.38523 37.4157 6.23345 36.5667C7.08167 35.7177 8.14837 35.1201 9.31536 34.8402C10.0694 34.6668 10.9187 34.6668 11.9154 34.6668ZM12.132 39.0002C10.7974 39.0002 10.5114 39.0132 10.325 39.0608C9.93577 39.1539 9.5799 39.353 9.29688 39.636C9.01387 39.919 8.81478 40.2749 8.7217 40.6642C8.6827 40.8418 8.66536 41.1278 8.66536 42.4668V52.8668C8.66536 54.2015 8.67836 54.4875 8.72603 54.6738C8.81912 55.0631 9.01821 55.419 9.30122 55.702C9.58423 55.985 9.9401 56.1841 10.3294 56.2772C10.5114 56.3205 10.7974 56.3335 12.132 56.3335H22.532C23.8667 56.3335 24.1527 56.3162 24.339 56.2728C24.7283 56.1797 25.0842 55.9807 25.3672 55.6976C25.6502 55.4146 25.8493 55.0588 25.9424 54.6695C25.9857 54.4875 25.9987 54.2015 25.9987 52.8668V42.4668C25.9987 41.1322 25.9857 40.8462 25.938 40.6598C25.8449 40.2706 25.6459 39.9147 25.3628 39.6317C25.0798 39.3487 24.724 39.1496 24.3347 39.0565C24.157 39.0175 23.871 39.0002 22.532 39.0002H12.132ZM42.4654 34.6668H42.2487C41.2564 34.6668 40.4027 34.6668 39.6487 34.8445C38.4814 35.1234 37.4142 35.72 36.5652 36.5683C35.7162 37.4165 35.1187 38.4832 34.8387 39.6502C34.6654 40.4042 34.6654 41.2535 34.6654 42.2502V53.0835C34.6654 54.0758 34.6654 54.9295 34.843 55.6835C35.1219 56.8507 35.7186 57.918 36.5668 58.767C37.415 59.6159 38.4817 60.2135 39.6487 60.4935C40.4027 60.6712 41.2564 60.6712 42.2487 60.6712H53.082C54.0744 60.6712 54.928 60.6712 55.682 60.4935C56.8485 60.2139 57.9148 59.6169 58.763 58.7688C59.6111 57.9206 60.2081 56.8543 60.4877 55.6878C60.6654 54.9338 60.6654 54.0802 60.6654 53.0878V42.2502C60.6654 41.2578 60.6654 40.4042 60.4877 39.6502C60.2088 38.4829 59.6122 37.4157 58.7639 36.5667C57.9157 35.7177 56.849 35.1201 55.682 34.8402C54.928 34.6668 54.0787 34.6668 53.082 34.6668H52.8654H42.4654ZM40.6584 39.0608C40.8447 39.0175 41.135 39.0002 42.4654 39.0002H52.8654C54.2 39.0002 54.486 39.0132 54.6724 39.0608C55.0616 39.1539 55.4175 39.353 55.7005 39.636C55.9835 39.919 56.1826 40.2749 56.2757 40.6642C56.319 40.8462 56.332 41.1322 56.332 42.4668V52.8668C56.332 54.2015 56.3147 54.4875 56.2714 54.6738C56.1783 55.0631 55.9792 55.419 55.6962 55.702C55.4132 55.985 55.0573 56.1841 54.668 56.2772C54.486 56.3205 54.2 56.3335 52.8654 56.3335H42.4654C41.1307 56.3335 40.8447 56.3162 40.6584 56.2728C40.2691 56.1797 39.9132 55.9807 39.6302 55.6976C39.3472 55.4146 39.1481 55.0588 39.055 54.6695C39.016 54.4918 38.9987 54.2058 38.9987 52.8668V42.4668C38.9987 41.1322 39.0117 40.8462 39.0594 40.6598C39.1524 40.2706 39.3515 39.9147 39.6345 39.6317C39.9176 39.3487 40.2734 39.1496 40.6627 39.0565" fill="#F5F5F5"/>
</svg>
