<svg width="46" height="47" viewBox="0 0 46 47" fill="none" xmlns="http://www.w3.org/2000/svg">
<mask id="mask0_442_4862" style="mask-type:luminance" maskUnits="userSpaceOnUse" x="0" y="0" width="46" height="47">
<path d="M46 0H0V46.4207H46V0Z" fill="white"/>
</mask>
<g mask="url(#mask0_442_4862)">
<path d="M25.3457 7.95016L27.12 6.18675C30.6041 2.72388 36.2763 2.63817 39.7805 6.08109C41.1083 7.38858 41.9907 9.07662 42.3037 10.9081C42.6167 12.7396 42.3446 14.6225 41.5256 16.2924C41.1327 17.0901 41.0004 17.9898 41.1468 18.8659C41.2935 19.742 41.7117 20.5507 42.3432 21.179C43.5044 20.0223 44.4247 18.6494 45.0519 17.139C45.679 15.6285 46.0007 14.0101 45.9984 12.3761C45.9959 10.7421 45.6699 9.12455 45.0384 7.61589C44.4069 6.10721 43.4825 4.73698 42.3181 3.58347C37.4181 -1.25915 29.4646 -1.16279 24.5783 3.69345L7.66685 20.5013L6.27658 19.1195C2.73336 15.5979 2.71077 9.84146 6.3165 6.38244C7.65118 5.10601 9.35158 4.27276 11.183 3.99772C13.0145 3.72267 14.8867 4.01939 16.5412 4.84691C17.2964 5.23154 18.1546 5.36913 18.9931 5.24004C19.8317 5.11095 20.6078 4.72179 21.2105 4.12812L21.2536 4.08549C21.267 4.07225 21.2777 4.05649 21.285 4.03912C21.2922 4.02178 21.2959 4.00316 21.2959 3.98436C21.2959 3.96557 21.2922 3.94695 21.285 3.9296C21.2777 3.91226 21.267 3.8965 21.2536 3.88323C18.926 1.62793 15.8069 0.361125 12.5562 0.350883C9.30554 0.340643 6.17836 1.58776 3.83641 3.82836C-1.20842 8.66873 -1.19039 16.7178 3.76797 21.6459L20.6744 38.4492L18.8785 40.2341C15.3944 43.697 9.72192 43.7827 6.21794 40.3398C4.89016 39.0324 4.00778 37.3443 3.69476 35.5128C3.38175 33.6814 3.65378 31.7985 4.47268 30.1285C4.86556 29.3308 4.99797 28.4311 4.85144 27.5551C4.70488 26.679 4.28668 25.8702 3.65527 25.2419C2.49411 26.3987 1.57365 27.7715 0.946473 29.2818C0.319291 30.7924 -0.00231789 32.4107 1.25752e-05 34.0449C0.00234305 35.6788 0.328567 37.2964 0.960057 38.805C1.59154 40.3137 2.51592 41.684 3.68036 42.8374C8.58009 47.6803 16.5339 47.5841 21.4202 42.7277L38.3535 25.8974L39.749 27.2844C43.2332 30.7473 43.3194 36.3849 39.8553 39.8675C38.5399 41.1874 36.8414 42.0642 34.9987 42.3755C33.1561 42.6866 31.2616 42.4161 29.5814 41.6021C28.7785 41.2114 27.8728 41.0797 26.9911 41.2257C26.1093 41.3715 25.2953 41.7876 24.6632 42.4157C25.8271 43.5698 27.2083 44.4847 28.7279 45.1081C30.2478 45.7314 31.876 46.0511 33.5202 46.0488C35.1641 46.0463 36.7917 45.7221 38.3095 45.0945C39.8275 44.4668 41.2062 43.548 42.3667 42.3907C47.2393 37.5209 47.1423 29.6156 42.2563 24.7594L25.3457 7.95016ZM23.199 35.9389L10.1921 23.0114L22.8203 10.4605L35.8271 23.388L23.199 35.9389Z" fill="url(#paint0_linear_442_4862)"/>
</g>
<defs>
<linearGradient id="paint0_linear_442_4862" x1="22.9992" y1="0.000976562" x2="22.9992" y2="46.4202" gradientUnits="userSpaceOnUse">
<stop stop-color="#F3C301"/>
<stop offset="1" stop-color="#458985"/>
</linearGradient>
</defs>
</svg>
