<svg width="25" height="24" viewBox="0 0 25 24" fill="none" xmlns="http://www.w3.org/2000/svg">
<path d="M3.25 6C3.05109 6 2.86032 6.07902 2.71967 6.21967C2.57902 6.36032 2.5 6.55109 2.5 6.75C2.5 6.94891 2.57902 7.13968 2.71967 7.28033C2.86032 7.42098 3.05109 7.5 3.25 7.5H21.75C21.9489 7.5 22.1397 7.42098 22.2803 7.28033C22.421 7.13968 22.5 6.94891 22.5 6.75C22.5 6.55109 22.421 6.36032 22.2803 6.21967C22.1397 6.07902 21.9489 6 21.75 6H3.25ZM6.5 11.75C6.5 11.5511 6.57902 11.3603 6.71967 11.2197C6.86032 11.079 7.05109 11 7.25 11H17.75C17.9489 11 18.1397 11.079 18.2803 11.2197C18.421 11.3603 18.5 11.5511 18.5 11.75C18.5 11.9489 18.421 12.1397 18.2803 12.2803C18.1397 12.421 17.9489 12.5 17.75 12.5H7.25C7.05109 12.5 6.86032 12.421 6.71967 12.2803C6.57902 12.1397 6.5 11.9489 6.5 11.75ZM10.5 16.688C10.5 16.4891 10.579 16.2983 10.7197 16.1577C10.8603 16.017 11.0511 15.938 11.25 15.938H13.75C13.9489 15.938 14.1397 16.017 14.2803 16.1577C14.421 16.2983 14.5 16.4891 14.5 16.688C14.5 16.8869 14.421 17.0777 14.2803 17.2183C14.1397 17.359 13.9489 17.438 13.75 17.438H11.25C11.0511 17.438 10.8603 17.359 10.7197 17.2183C10.579 17.0777 10.5 16.8869 10.5 16.688Z" fill="black"/>
</svg>
