<svg width="84" height="15" viewBox="0 0 84 15" fill="none" xmlns="http://www.w3.org/2000/svg">
<path d="M2.883 14.6834L4.123 9.37038L0 5.79838L5.431 5.32838L7.558 0.317383L9.685 5.32738L15.115 5.79738L10.993 9.36938L12.233 14.6824L7.558 11.8624L2.883 14.6834Z" fill="#141E15"/>
<path d="M19.883 14.6834L21.123 9.37038L17 5.79838L22.431 5.32838L24.558 0.317383L26.685 5.32738L32.115 5.79738L27.993 9.36938L29.233 14.6824L24.558 11.8624L19.883 14.6834Z" fill="#141E15"/>
<path d="M36.883 14.6834L38.123 9.37038L34 5.79838L39.431 5.32838L41.558 0.317383L43.685 5.32738L49.115 5.79738L44.993 9.36938L46.233 14.6824L41.558 11.8624L36.883 14.6834Z" fill="#141E15"/>
<path d="M53.883 14.6834L55.123 9.37038L51 5.79838L56.431 5.32838L58.558 0.317383L60.685 5.32738L66.115 5.79738L61.993 9.36938L63.233 14.6824L58.558 11.8624L53.883 14.6834Z" fill="#141E15"/>
<path d="M70.883 14.6834L72.123 9.37038L68 5.79838L73.431 5.32838L75.558 0.317383L77.685 5.32738L83.115 5.79738L78.993 9.36938L80.233 14.6824L75.558 11.8624L70.883 14.6834Z" fill="#141E15"/>
</svg>
