<svg width="25" height="24" viewBox="0 0 25 24" fill="none" xmlns="http://www.w3.org/2000/svg">
<path d="M12.1151 14.1704C9.98512 14.1704 8.24512 12.4404 8.24512 10.3004C8.24512 8.16043 9.98512 6.44043 12.1151 6.44043C14.2451 6.44043 15.9851 8.17043 15.9851 10.3104C15.9851 12.4504 14.2451 14.1704 12.1151 14.1704ZM12.1151 7.94043C10.8151 7.94043 9.74512 9.00043 9.74512 10.3104C9.74512 11.6204 10.8051 12.6804 12.1151 12.6804C13.4251 12.6804 14.4851 11.6204 14.4851 10.3104C14.4851 9.00043 13.4151 7.94043 12.1151 7.94043Z" fill="#292D32"/>
<path d="M12.1149 22.76C10.6349 22.76 9.14492 22.2 7.98492 21.09C5.03492 18.25 1.77492 13.72 3.00492 8.33C4.11492 3.44 8.38492 1.25 12.1149 1.25C12.1149 1.25 12.1149 1.25 12.1249 1.25C15.8549 1.25 20.1249 3.44 21.2349 8.34C22.4549 13.73 19.1949 18.25 16.2449 21.09C15.0849 22.2 13.5949 22.76 12.1149 22.76ZM12.1149 2.75C9.20492 2.75 5.46492 4.3 4.47492 8.66C3.39492 13.37 6.35492 17.43 9.03492 20C10.7649 21.67 13.4749 21.67 15.2049 20C17.8749 17.43 20.8349 13.37 19.7749 8.66C18.7749 4.3 15.0249 2.75 12.1149 2.75Z" fill="#292D32"/>
</svg>
