<svg width="65" height="65" viewBox="0 0 65 65"  xmlns="http://www.w3.org/2000/svg">
<path d="M30.4688 37.9165C29.93 37.9165 29.4134 37.7025 29.0324 37.3216C28.6515 36.9406 28.4375 36.424 28.4375 35.8853C28.4375 35.3465 28.6515 34.8299 29.0324 34.4489C29.4134 34.068 29.93 33.854 30.4688 33.854C31.0075 33.854 31.5241 34.068 31.9051 34.4489C32.286 34.8299 32.5 35.3465 32.5 35.8853C32.5 36.424 32.286 36.9406 31.9051 37.3216C31.5241 37.7025 31.0075 37.9165 30.4688 37.9165Z" />
<path fill-rule="evenodd" clip-rule="evenodd" d="M12.7684 27.0833C13.0311 27.0833 13.2898 27.0617 13.5417 27.0183V37.9167H10.1562C9.97668 37.9167 9.80446 37.988 9.67748 38.115C9.5505 38.242 9.47917 38.4142 9.47917 38.5938V39.9479C9.47917 40.1275 9.5505 40.2997 9.67748 40.4267C9.80446 40.5537 9.97668 40.625 10.1562 40.625H54.8438C55.0233 40.625 55.1955 40.5537 55.3225 40.4267C55.4495 40.2997 55.5208 40.1275 55.5208 39.9479V38.5938C55.5208 38.4142 55.4495 38.242 55.3225 38.115C55.1955 37.988 55.0233 37.9167 54.8438 37.9167H51.4583V27.0183C51.7102 27.0617 51.9689 27.0833 52.2316 27.0833C54.8072 27.0833 56.875 24.9817 56.875 22.4128V19.1764C56.8751 18.7469 56.8004 18.3208 56.6543 17.917L53.7022 9.77844C53.5271 9.29404 53.2069 8.87539 52.7852 8.57952C52.3636 8.28365 51.861 8.12494 51.3459 8.125H13.6527C13.1379 8.1256 12.6358 8.28477 12.2147 8.58086C11.7936 8.87694 11.4739 9.29557 11.2992 9.77979L8.34708 17.917C8.20041 18.3207 8.12525 18.7468 8.125 19.1764V22.4128C8.125 24.9817 10.1928 27.0833 12.7684 27.0833ZM10.8929 18.8405L13.7976 10.8333H51.201L54.1057 18.8405C54.1464 18.9489 54.1653 19.0612 54.1653 19.1764V22.4128C54.1686 22.9295 53.9666 23.4264 53.6038 23.7943C53.2409 24.1622 52.7469 24.3711 52.2302 24.375C51.174 24.375 50.2965 23.5083 50.2965 22.4128C50.2965 22.0537 50.1538 21.7092 49.8998 21.4553C49.6459 21.2013 49.3014 21.0586 48.9423 21.0586C48.5831 21.0586 48.2387 21.2013 47.9848 21.4553C47.7308 21.7092 47.5881 22.0537 47.5881 22.4128C47.5914 22.9295 47.3894 23.4264 47.0266 23.7943C46.6637 24.1622 46.1697 24.3711 45.653 24.375C44.5968 24.375 43.7193 23.5083 43.7193 22.4142C43.7193 22.055 43.5766 21.7106 43.3226 21.4566C43.0687 21.2027 42.7243 21.06 42.3651 21.06C42.006 21.06 41.6615 21.2027 41.4076 21.4566C41.1536 21.7106 41.0109 22.055 41.0109 22.4142C41.0109 23.5083 40.1334 24.375 39.0758 24.375C38.0182 24.375 37.1421 23.5083 37.1421 22.4128C37.1421 22.0537 36.9994 21.7092 36.7455 21.4553C36.4915 21.2013 36.1471 21.0586 35.7879 21.0586C35.4288 21.0586 35.0843 21.2013 34.8304 21.4553C34.5764 21.7092 34.4337 22.0537 34.4337 22.4128C34.4374 22.9294 34.2357 23.4263 33.8731 23.7942C33.5105 24.1622 33.0166 24.3711 32.5 24.375C31.9835 24.3711 31.4897 24.1624 31.1269 23.7948C30.7641 23.4272 30.562 22.9306 30.5649 22.4142C30.5649 22.055 30.4222 21.7106 30.1683 21.4566C29.9143 21.2027 29.5699 21.06 29.2107 21.06C28.8516 21.06 28.5071 21.2027 28.2532 21.4566C27.9992 21.7106 27.8566 22.055 27.8566 22.4142C27.8566 23.5083 26.9804 24.375 25.9228 24.375C24.8652 24.375 23.9877 23.5083 23.9877 22.4128C23.9877 22.0537 23.845 21.7092 23.5911 21.4553C23.3371 21.2013 22.9927 21.0586 22.6335 21.0586C22.2744 21.0586 21.93 21.2013 21.676 21.4553C21.422 21.7092 21.2794 22.0537 21.2794 22.4128C21.2794 23.507 20.4032 24.375 19.3456 24.375C18.288 24.375 17.4105 23.5083 17.4105 22.4128C17.4105 22.0537 17.2678 21.7092 17.0139 21.4553C16.7599 21.2013 16.4155 21.0586 16.0564 21.0586C15.6972 21.0586 15.3528 21.2013 15.0988 21.4553C14.8449 21.7092 14.7022 22.0537 14.7022 22.4128C14.7022 23.507 13.826 24.375 12.7684 24.375C11.7095 24.375 10.8333 23.5083 10.8333 22.4128V19.1764C10.8333 19.0618 10.8535 18.9481 10.8929 18.8405ZM48.75 25.8944C47.9016 26.6613 46.7981 27.0851 45.6544 27.0833C45.0426 27.0841 44.4369 26.963 43.8724 26.7273C43.3079 26.4916 42.796 26.1458 42.3665 25.7102C41.9368 26.146 41.4246 26.4918 40.8599 26.7276C40.2952 26.9633 39.6892 27.0843 39.0772 27.0833C38.4654 27.0841 37.8597 26.963 37.2952 26.7273C36.7307 26.4916 36.2188 26.1458 35.7893 25.7102C35.3596 26.146 34.8475 26.4918 34.2827 26.7276C33.718 26.9633 33.112 27.0843 32.5 27.0833C31.888 27.0843 31.282 26.9633 30.7173 26.7276C30.1525 26.4918 29.6404 26.146 29.2107 25.7102C28.7812 26.1458 28.2693 26.4916 27.7048 26.7273C27.1403 26.963 26.5345 27.0841 25.9228 27.0833C24.635 27.0833 23.4718 26.5566 22.6335 25.7102C22.204 26.1458 21.6921 26.4916 21.1276 26.7273C20.5631 26.963 19.9574 27.0841 19.3456 27.0833C18.154 27.0833 17.0706 26.6324 16.25 25.8944V37.9167H19.6354C19.4558 37.9167 19.2836 37.8453 19.1566 37.7184C19.0297 37.5914 18.9583 37.4192 18.9583 37.2396V34.5312C18.9583 34.3517 19.0297 34.1795 19.1566 34.0525C19.2836 33.9255 19.4558 33.8542 19.6354 33.8542H23.6979C23.8775 33.8542 24.0497 33.9255 24.1767 34.0525C24.3037 34.1795 24.375 34.3517 24.375 34.5312V35.2083H26.4062C26.5858 35.2083 26.758 35.2797 26.885 35.4066C27.012 35.5336 27.0833 35.7058 27.0833 35.8854V37.2396C27.0833 37.4192 27.012 37.5914 26.885 37.7184C26.758 37.8453 26.5858 37.9167 26.4062 37.9167H48.75V25.8944ZM10.8333 44.6875C10.8333 44.3284 10.976 43.9839 11.23 43.73C11.4839 43.476 11.8284 43.3333 12.1875 43.3333H52.8125C53.1716 43.3333 53.5161 43.476 53.77 43.73C54.024 43.9839 54.1667 44.3284 54.1667 44.6875V55.5208C54.1667 55.88 54.024 56.2244 53.77 56.4784C53.5161 56.7323 53.1716 56.875 52.8125 56.875H12.1875C11.8284 56.875 11.4839 56.7323 11.23 56.4784C10.976 56.2244 10.8333 55.88 10.8333 55.5208V44.6875ZM13.5417 54.1667V46.0417H51.4583V54.1667H13.5417Z" fill="#F5F5F5"/>
</svg>
