<svg width="61" height="48" viewBox="0 0 61 48" fill="none" xmlns="http://www.w3.org/2000/svg">
<g clip-path="url(#clip0_1290_7888)">
<path d="M11.0893 47.1819V44.0435C11.0893 42.8402 10.3569 42.0558 9.10135 42.0558C8.47371 42.0558 7.79366 42.265 7.32282 42.945C6.95682 42.3696 6.43379 42.0558 5.64913 42.0558C5.12586 42.0558 4.60307 42.2125 4.18441 42.788V42.1604H3.08594V47.1819H4.18441V44.4095C4.18441 43.5205 4.65526 43.1018 5.38773 43.1018C6.11973 43.1018 6.48621 43.5727 6.48621 44.4095V47.1819H7.58469V44.4095C7.58469 43.5205 8.10748 43.1018 8.78753 43.1018C9.52001 43.1018 9.88601 43.5727 9.88601 44.4095V47.1819H11.0893ZM27.357 42.1604H25.5787V40.6435H24.4803V42.1604H23.4864V43.154H24.48V45.4558C24.48 46.6067 24.9509 47.2865 26.2064 47.2865C26.6772 47.2865 27.2 47.1297 27.5665 46.9205L27.2524 45.9788C26.9386 46.188 26.5726 46.2404 26.311 46.2404C25.7879 46.2404 25.5787 45.9266 25.5787 45.4034V43.154H27.357V42.1604ZM36.6681 42.0555C36.0405 42.0555 35.6221 42.3696 35.3604 42.788V42.1604H34.2619V47.1819H35.3604V44.3573C35.3604 43.5205 35.7264 43.0496 36.4065 43.0496C36.6157 43.0496 36.8773 43.102 37.0865 43.1542L37.4003 42.1082C37.1911 42.0558 36.8773 42.0558 36.6681 42.0558M22.5971 42.579C22.0739 42.2128 21.3416 42.056 20.557 42.056C19.3017 42.056 18.4648 42.6836 18.4648 43.6775C18.4648 44.5146 19.0925 44.9852 20.191 45.1422L20.714 45.1946C21.2894 45.299 21.6033 45.456 21.6033 45.7177C21.6033 46.0837 21.1848 46.3453 20.4524 46.3453C19.7201 46.3453 19.1447 46.0837 18.7784 45.8223L18.2554 46.6591C18.8308 47.0775 19.6155 47.2867 20.3999 47.2867C21.8646 47.2867 22.7017 46.6069 22.7017 45.6652C22.7017 44.776 22.0217 44.3051 20.9754 44.1483L20.4524 44.0959C19.9815 44.0435 19.6155 43.9391 19.6155 43.6253C19.6155 43.2591 19.9815 43.0499 20.557 43.0499C21.1848 43.0499 21.8125 43.3113 22.1263 43.4683L22.5971 42.579ZM51.7854 42.056C51.1575 42.056 50.7391 42.3698 50.4775 42.7882V42.1606H49.379V47.1821H50.4775V44.3575C50.4775 43.5207 50.8437 43.0499 51.5235 43.0499C51.733 43.0499 51.9946 43.1023 52.2038 43.1545L52.5176 42.1084C52.3084 42.056 51.9946 42.056 51.7854 42.056ZM37.7666 44.6714C37.7666 46.1883 38.8126 47.2867 40.4344 47.2867C41.1666 47.2867 41.6896 47.13 42.2127 46.7115L41.6896 45.8223C41.2712 46.1361 40.8528 46.2929 40.382 46.2929C39.4927 46.2929 38.8651 45.6652 38.8651 44.6714C38.8651 43.7299 39.4927 43.102 40.382 43.0499C40.8528 43.0499 41.2712 43.2066 41.6896 43.5207L42.2127 42.6314C41.6896 42.2128 41.1666 42.056 40.4344 42.056C38.8126 42.056 37.7666 43.1545 37.7666 44.6714ZM47.9145 44.6714V42.1606H46.816V42.7882C46.4498 42.3176 45.9268 42.056 45.2467 42.056C43.8344 42.056 42.7359 43.1545 42.7359 44.6714C42.7359 46.1883 43.8344 47.2867 45.2467 47.2867C45.9789 47.2867 46.5022 47.0253 46.816 46.5545V47.1821H47.9145V44.6714ZM43.8866 44.6714C43.8866 43.7821 44.462 43.0499 45.4035 43.0499C46.2928 43.0499 46.9206 43.7299 46.9206 44.6714C46.9206 45.5606 46.2928 46.2929 45.4035 46.2929C44.462 46.2404 43.8866 45.5606 43.8866 44.6714ZM30.7573 42.056C29.2926 42.056 28.2463 43.102 28.2463 44.6714C28.2463 46.2407 29.2923 47.2867 30.8095 47.2867C31.5417 47.2867 32.2742 47.0775 32.8496 46.6069L32.3264 45.8223C31.908 46.1361 31.3849 46.3453 30.8619 46.3453C30.1819 46.3453 29.5018 46.0315 29.3448 45.142H33.0589V44.7238C33.1113 43.102 32.1698 42.056 30.7573 42.056ZM30.7571 42.9974C31.4369 42.9974 31.908 43.4161 32.0123 44.2008H29.397C29.5016 43.5207 29.9724 42.9974 30.7571 42.9974ZM58.0098 44.6714V40.1729H56.9113V42.7882C56.5451 42.3176 56.022 42.056 55.342 42.056C53.9297 42.056 52.8312 43.1545 52.8312 44.6714C52.8312 46.1883 53.9297 47.2867 55.342 47.2867C56.0744 47.2867 56.5975 47.0253 56.9113 46.5545V47.1821H58.0098V44.6714ZM53.9821 44.6714C53.9821 43.7821 54.5573 43.0499 55.499 43.0499C56.3883 43.0499 57.0159 43.7299 57.0159 44.6714C57.0159 45.5606 56.3883 46.2929 55.499 46.2929C54.5573 46.2404 53.9821 45.5606 53.9821 44.6714ZM17.2613 44.6714V42.1606H16.1628V42.7882C15.7966 42.3176 15.2735 42.056 14.5935 42.056C13.1812 42.056 12.0827 43.1545 12.0827 44.6714C12.0827 46.1883 13.1812 47.2867 14.5935 47.2867C15.326 47.2867 15.849 47.0253 16.1628 46.5545V47.1821H17.2613V44.6714ZM13.1812 44.6714C13.1812 43.7821 13.7566 43.0499 14.6981 43.0499C15.5874 43.0499 16.2152 43.7299 16.2152 44.6714C16.2152 45.5606 15.5874 46.2929 14.6981 46.2929C13.7566 46.2404 13.1812 45.5606 13.1812 44.6714Z" fill="black"/>
<path d="M22.2305 4.02734H38.7076V33.634H22.2305V4.02734Z" fill="#FF5F00"/>
<path d="M23.2775 18.8311C23.2775 12.8157 26.102 7.48012 30.4435 4.02767C27.2529 1.5169 23.2253 0 18.8314 0C8.42157 0 0 8.42157 0 18.8311C0 29.2404 8.42157 37.6623 18.8311 37.6623C23.225 37.6623 27.2527 36.1454 30.4435 33.6343C26.102 30.2343 23.2775 24.8465 23.2775 18.8311Z" fill="#EB001B"/>
<path d="M60.9396 18.8311C60.9396 29.2404 52.518 37.6623 42.1085 37.6623C37.7146 37.6623 33.6869 36.1454 30.4961 33.6343C34.89 30.1821 37.6624 24.8465 37.6624 18.8311C37.6624 12.8157 34.8376 7.48012 30.4961 4.02767C33.6867 1.5169 37.7146 0 42.1085 0C52.518 0 60.9396 8.474 60.9396 18.8311Z" fill="#F79E1B"/>
</g>
<defs>
<clipPath id="clip0_1290_7888">
<rect width="61" height="47.418" fill="white"/>
</clipPath>
</defs>
</svg>
