<svg width="22" height="18" viewBox="0 0 22 18" fill="none" xmlns="http://www.w3.org/2000/svg">
<path opacity="0.8" fill-rule="evenodd" clip-rule="evenodd" d="M1.94364 7.78364C7.58077 5.31398 11.3397 3.68584 13.2206 2.8992C18.5907 0.653178 19.7065 0.263021 20.4338 0.250137C20.5938 0.247304 20.9514 0.287168 21.1831 0.476205C21.3787 0.635825 21.4326 0.851448 21.4583 1.00278C21.4841 1.15412 21.5162 1.49887 21.4907 1.76825C21.1997 4.84288 19.9405 12.3042 19.2999 15.7478C19.0288 17.2049 18.4951 17.6935 17.9784 17.7413C16.8554 17.8452 16.0027 16.9951 14.9151 16.2782C13.2132 15.1564 12.2517 14.458 10.5997 13.3633C8.69056 12.0982 9.92819 11.4029 11.0162 10.2666C11.301 9.96917 16.2486 5.44386 16.3444 5.03335C16.3564 4.98201 16.3675 4.79063 16.2544 4.68957C16.1414 4.58852 15.9745 4.62307 15.8541 4.65056C15.6834 4.68951 12.9646 6.49654 7.69761 10.0716C6.92588 10.6045 6.22687 10.8641 5.60058 10.8505C4.91015 10.8355 3.58204 10.458 2.59473 10.1353C1.38374 9.73943 0.421278 9.53015 0.505087 8.85791C0.54874 8.50777 1.02826 8.14968 1.94364 7.78364Z" fill="#141E15"/>
</svg>
