<svg width="65" height="65" viewBox="0 0 65 65" fill="none" xmlns="http://www.w3.org/2000/svg">
<path d="M22.0552 11.6069C20.6834 11.6069 19.325 11.8771 18.0576 12.4021C16.7902 12.9271 15.6385 13.6966 14.6685 14.6666C13.6985 15.6367 12.929 16.7883 12.404 18.0557C11.879 19.3231 11.6088 20.6815 11.6088 22.0534C11.6088 23.4252 11.879 24.7836 12.404 26.051C12.929 27.3185 13.6985 28.4701 14.6685 29.4401C15.6385 30.4101 16.7902 31.1796 18.0576 31.7046C19.325 32.2296 20.6834 32.4998 22.0552 32.4998C24.8258 32.4998 27.4829 31.3992 29.442 29.4401C31.4011 27.481 32.5017 24.8239 32.5017 22.0534C32.5017 19.2828 31.4011 16.6257 29.442 14.6666C27.4829 12.7075 24.8258 11.6069 22.0552 11.6069ZM15.091 22.0534C15.091 21.1388 15.2711 20.2332 15.6211 19.3882C15.9711 18.5433 16.4841 17.7756 17.1308 17.1289C17.7774 16.4822 18.5452 15.9692 19.3901 15.6192C20.2351 15.2692 21.1407 15.0891 22.0552 15.0891C22.9698 15.0891 23.8754 15.2692 24.7204 15.6192C25.5653 15.9692 26.333 16.4822 26.9797 17.1289C27.6264 17.7756 28.1394 18.5433 28.4894 19.3882C28.8394 20.2332 29.0195 21.1388 29.0195 22.0534C29.0195 23.9004 28.2858 25.6718 26.9797 26.9779C25.6737 28.2839 23.9023 29.0176 22.0552 29.0176C20.2082 29.0176 18.4368 28.2839 17.1308 26.9779C15.8247 25.6718 15.091 23.9004 15.091 22.0534ZM46.4302 16.2498C44.2754 16.2498 42.2087 17.1058 40.685 18.6295C39.1613 20.1533 38.3052 22.2199 38.3052 24.3748C38.3052 26.5297 39.1613 28.5963 40.685 30.12C42.2087 31.6438 44.2754 32.4998 46.4302 32.4998C48.5851 32.4998 50.6518 31.6438 52.1755 30.12C53.6992 28.5963 54.5552 26.5297 54.5552 24.3748C54.5552 22.2199 53.6992 20.1533 52.1755 18.6295C50.6518 17.1058 48.5851 16.2498 46.4302 16.2498ZM41.7874 24.3748C41.7874 23.1434 42.2765 21.9625 43.1473 21.0918C44.018 20.2211 45.1989 19.7319 46.4302 19.7319C47.6616 19.7319 48.8425 20.2211 49.7132 21.0918C50.5839 21.9625 51.0731 23.1434 51.0731 24.3748C51.0731 25.6062 50.5839 26.7871 49.7132 27.6578C48.8425 28.5285 47.6616 29.0176 46.4302 29.0176C45.1989 29.0176 44.018 28.5285 43.1473 27.6578C42.2765 26.7871 41.7874 25.6062 41.7874 24.3748ZM4.64453 42.3659C4.64453 40.9806 5.19483 39.652 6.17438 38.6725C7.15392 37.6929 8.48246 37.1426 9.86775 37.1426H34.2427C35.628 37.1426 36.9566 37.6929 37.9361 38.6725C38.9157 39.652 39.466 40.9806 39.466 42.3659V43.5985C39.463 43.7864 39.4498 43.9739 39.4265 44.1603C39.3741 44.6392 39.2888 45.1139 39.1711 45.581C38.7873 47.1054 38.1031 48.5379 37.1585 49.7944C34.8045 52.9353 30.3149 55.7141 22.0552 55.7141C13.7956 55.7141 9.30596 52.9353 6.95203 49.7944C6.00827 48.5377 5.3248 47.1053 4.94167 45.581C4.7901 44.9742 4.69299 44.355 4.6515 43.7309C4.6486 43.6868 4.64628 43.6427 4.64453 43.5985V43.5312V42.3659ZM8.12667 43.515V43.5568L8.14757 43.7889C8.17078 44.0071 8.21721 44.3344 8.31935 44.736C8.59001 45.8098 9.07136 46.819 9.73542 47.7051C11.3001 49.7875 14.6452 52.2319 22.0552 52.2319C29.4652 52.2319 32.8104 49.7875 34.3727 47.7051C35.1852 46.6234 35.5892 45.5416 35.7888 44.736C35.8863 44.3491 35.9508 43.9546 35.9815 43.5568L35.9838 43.515V42.3659C35.9838 41.9041 35.8004 41.4613 35.4739 41.1347C35.1474 40.8082 34.7045 40.6248 34.2427 40.6248H9.86775C9.40598 40.6248 8.96314 40.8082 8.63662 41.1347C8.31011 41.4613 8.12667 41.9041 8.12667 42.3659V43.515ZM39.6981 50.1891C41.4926 50.7393 43.7072 51.0712 46.4256 51.0712C52.856 51.0712 56.4495 49.2234 58.4019 46.9948C59.1825 46.1129 59.7609 45.071 60.0965 43.9421C60.229 43.4863 60.3138 43.018 60.3495 42.5446L60.3542 42.4355V42.3659C60.3542 40.9806 59.8039 39.652 58.8243 38.6725C57.8448 37.6929 56.5162 37.1426 55.131 37.1426H39.6842C40.5988 38.0968 41.2674 39.2923 41.5831 40.6248H55.1333C55.591 40.6248 56.0304 40.805 56.3563 41.1265C56.6821 41.448 56.8682 41.8849 56.8744 42.3426C56.8538 42.5534 56.8134 42.7617 56.7536 42.9648C56.5594 43.6079 56.2266 44.2006 55.7786 44.7012C54.6852 45.9548 52.1874 47.5891 46.4256 47.5891C44.2411 47.5891 42.5256 47.3546 41.1768 46.9925C40.8191 48.1155 40.3223 49.1893 39.6981 50.1891Z" fill="#265235"/>
</svg>
