<svg width="65" height="65" viewBox="0 0 65 65" fill="none" xmlns="http://www.w3.org/2000/svg">
<path fill-rule="evenodd" clip-rule="evenodd" d="M16.25 29.25C17.9739 29.25 19.6272 28.5652 20.8462 27.3462C22.0652 26.1272 22.75 24.4739 22.75 22.75C22.75 21.0261 22.0652 19.3728 20.8462 18.1538C19.6272 16.9348 17.9739 16.25 16.25 16.25C14.5261 16.25 12.8728 16.9348 11.6538 18.1538C10.4348 19.3728 9.75 21.0261 9.75 22.75C9.75 24.4739 10.4348 26.1272 11.6538 27.3462C12.8728 28.5652 14.5261 29.25 16.25 29.25ZM16.25 32.5C17.5304 32.5 18.7982 32.2478 19.9812 31.7578C21.1641 31.2678 22.2389 30.5497 23.1443 29.6443C24.0497 28.7389 24.7678 27.6641 25.2578 26.4812C25.7478 25.2982 26 24.0304 26 22.75C26 21.4696 25.7478 20.2018 25.2578 19.0188C24.7678 17.8359 24.0497 16.7611 23.1443 15.8557C22.2389 14.9503 21.1641 14.2322 19.9812 13.7422C18.7982 13.2522 17.5304 13 16.25 13C13.6641 13 11.1842 14.0272 9.35571 15.8557C7.52723 17.6842 6.5 20.1641 6.5 22.75C6.5 25.3359 7.52723 27.8158 9.35571 29.6443C11.1842 31.4728 13.6641 32.5 16.25 32.5Z" fill="#F5F5F5"/>
<path fill-rule="evenodd" clip-rule="evenodd" d="M12.5255 28.9119C12.6768 29.0628 12.7969 29.2421 12.8788 29.4396C12.9607 29.637 13.0029 29.8486 13.0029 30.0624C13.0029 30.2761 12.9607 30.4878 12.8788 30.6852C12.7969 30.8826 12.6768 31.0619 12.5255 31.2129L11.427 32.3081C9.31299 34.4227 8.12528 37.2903 8.125 40.2804V46.3124C8.125 46.7434 7.95379 47.1567 7.64905 47.4614C7.3443 47.7662 6.93098 47.9374 6.5 47.9374C6.06902 47.9374 5.6557 47.7662 5.35095 47.4614C5.0462 47.1567 4.875 46.7434 4.875 46.3124V40.2804C4.87546 36.4284 6.4057 32.7343 9.12925 30.0104L10.2245 28.9119C10.3754 28.7605 10.5548 28.6405 10.7522 28.5586C10.9496 28.4766 11.1613 28.4345 11.375 28.4345C11.5887 28.4345 11.8004 28.4766 11.9978 28.5586C12.1952 28.6405 12.3746 28.7605 12.5255 28.9119ZM50.8495 27.9369C50.6982 28.0878 50.5781 28.2671 50.4962 28.4646C50.4143 28.662 50.3721 28.8736 50.3721 29.0874C50.3721 29.3011 50.4143 29.5128 50.4962 29.7102C50.5781 29.9076 50.6982 30.0869 50.8495 30.2379L51.948 31.3331C52.9949 32.3801 53.8253 33.623 54.3919 34.9908C54.9585 36.3587 55.25 37.8248 55.25 39.3054V46.3124C55.25 46.7434 55.4212 47.1567 55.726 47.4614C56.0307 47.7662 56.444 47.9374 56.875 47.9374C57.306 47.9374 57.7193 47.7662 58.024 47.4614C58.3288 47.1567 58.5 46.7434 58.5 46.3124V39.3054C58.4995 35.4534 56.9693 31.7593 54.2458 29.0354L53.1505 27.9369C52.9996 27.7855 52.8202 27.6655 52.6228 27.5836C52.4254 27.5016 52.2137 27.4595 52 27.4595C51.7863 27.4595 51.5746 27.5016 51.3772 27.5836C51.1798 27.6655 51.0004 27.7855 50.8495 27.9369Z" fill="#F5F5F5"/>
<path fill-rule="evenodd" clip-rule="evenodd" d="M45.5 29.25C43.7761 29.25 42.1228 28.5652 40.9038 27.3462C39.6848 26.1272 39 24.4739 39 22.75C39 21.0261 39.6848 19.3728 40.9038 18.1538C42.1228 16.9348 43.7761 16.25 45.5 16.25C47.2239 16.25 48.8772 16.9348 50.0962 18.1538C51.3152 19.3728 52 21.0261 52 22.75C52 24.4739 51.3152 26.1272 50.0962 27.3462C48.8772 28.5652 47.2239 29.25 45.5 29.25ZM45.5 32.5C44.2196 32.5 42.9518 32.2478 41.7688 31.7578C40.5859 31.2678 39.5111 30.5497 38.6057 29.6443C37.7003 28.7389 36.9822 27.6641 36.4922 26.4812C36.0022 25.2982 35.75 24.0304 35.75 22.75C35.75 21.4696 36.0022 20.2018 36.4922 19.0188C36.9822 17.8359 37.7003 16.7611 38.6057 15.8557C39.5111 14.9503 40.5859 14.2322 41.7688 13.7422C42.9518 13.2522 44.2196 13 45.5 13C48.0859 13 50.5658 14.0272 52.3943 15.8557C54.2228 17.6842 55.25 20.1641 55.25 22.75C55.25 25.3359 54.2228 27.8158 52.3943 29.6443C50.5658 31.4728 48.0859 32.5 45.5 32.5ZM30.875 43.0625C28.7201 43.0625 26.6535 43.9185 25.1298 45.4423C23.606 46.966 22.75 49.0326 22.75 51.1875V55.4125C22.75 55.8435 22.5788 56.2568 22.274 56.5615C21.9693 56.8663 21.556 57.0375 21.125 57.0375C20.694 57.0375 20.2807 56.8663 19.976 56.5615C19.6712 56.2568 19.5 55.8435 19.5 55.4125V51.1875C19.5 48.1707 20.6984 45.2774 22.8317 43.1442C24.9649 41.0109 27.8582 39.8125 30.875 39.8125C33.8918 39.8125 36.7851 41.0109 38.9183 43.1442C41.0516 45.2774 42.25 48.1707 42.25 51.1875V55.4125C42.25 55.8435 42.0788 56.2568 41.774 56.5615C41.4693 56.8663 41.056 57.0375 40.625 57.0375C40.194 57.0375 39.7807 56.8663 39.476 56.5615C39.1712 56.2568 39 55.8435 39 55.4125V51.1875C39 50.1205 38.7898 49.064 38.3815 48.0782C37.9732 47.0924 37.3747 46.1967 36.6202 45.4423C35.8658 44.6878 34.9701 44.0893 33.9843 43.681C32.9985 43.2727 31.942 43.0625 30.875 43.0625Z" fill="#F5F5F5"/>
<path fill-rule="evenodd" clip-rule="evenodd" d="M30.875 38.1875C32.5989 38.1875 34.2522 37.5027 35.4712 36.2837C36.6902 35.0647 37.375 33.4114 37.375 31.6875C37.375 29.9636 36.6902 28.3103 35.4712 27.0913C34.2522 25.8723 32.5989 25.1875 30.875 25.1875C29.1511 25.1875 27.4978 25.8723 26.2788 27.0913C25.0598 28.3103 24.375 29.9636 24.375 31.6875C24.375 33.4114 25.0598 35.0647 26.2788 36.2837C27.4978 37.5027 29.1511 38.1875 30.875 38.1875ZM30.875 41.4375C33.4609 41.4375 35.9408 40.4103 37.7693 38.5818C39.5978 36.7533 40.625 34.2734 40.625 31.6875C40.625 29.1016 39.5978 26.6217 37.7693 24.7932C35.9408 22.9647 33.4609 21.9375 30.875 21.9375C28.2891 21.9375 25.8092 22.9647 23.9807 24.7932C22.1522 26.6217 21.125 29.1016 21.125 31.6875C21.125 34.2734 22.1522 36.7533 23.9807 38.5818C25.8092 40.4103 28.2891 41.4375 30.875 41.4375Z" fill="#F5F5F5"/>
</svg>
