<svg width="65" height="65" viewBox="0 0 65 65" fill="none" xmlns="http://www.w3.org/2000/svg">
<path d="M47.423 16.4177C46.3749 15.3742 45.0606 14.6382 43.6231 14.2901C42.1857 13.942 40.6803 13.995 39.2709 14.4433V13.5414C39.2162 11.4229 38.3362 9.40946 36.8184 7.93038C35.3006 6.4513 33.2652 5.62354 31.1459 5.62354C29.0266 5.62354 26.9912 6.4513 25.4734 7.93038C23.9556 9.40946 23.0756 11.4229 23.0209 13.5414V14.4406C21.6111 13.9944 20.106 13.9428 18.6689 14.2913C17.2318 14.6399 15.9176 15.3752 14.8688 16.4177C12.7247 18.551 11.0248 21.0882 9.86725 23.8825C8.70972 26.6768 8.11759 29.6729 8.12507 32.6975C8.11759 35.7221 8.70972 38.7181 9.86725 41.5125C11.0248 44.3068 12.7247 46.844 14.8688 48.9773C19.213 53.3241 24.9953 55.7183 31.1459 55.7183C37.2965 55.7183 43.0761 53.3241 47.423 48.9773C51.7699 44.6304 54.1667 38.8481 54.1667 32.6975C54.1667 26.5469 51.7699 20.7673 47.423 16.4177ZM28.4376 13.5414C28.4376 12.8231 28.7229 12.1343 29.2308 11.6264C29.7387 11.1184 30.4276 10.8331 31.1459 10.8331C31.8642 10.8331 32.5531 11.1184 33.061 11.6264C33.5689 12.1343 33.8542 12.8231 33.8542 13.5414V27.0831C33.8542 27.8014 33.5689 28.4903 33.061 28.9982C32.5531 29.5061 31.8642 29.7914 31.1459 29.7914C30.4276 29.7914 29.7387 29.5061 29.2308 28.9982C28.7229 28.4903 28.4376 27.8014 28.4376 27.0831V13.5414ZM25.7292 23.8412V27.0831C25.7292 28.5197 26.2999 29.8974 27.3157 30.9133C28.3316 31.9291 29.7093 32.4998 31.1459 32.4998C32.5825 32.4998 33.9602 31.9291 34.9761 30.9133C35.9919 29.8974 36.5626 28.5197 36.5626 27.0831V23.8819C36.8199 24.651 37.2342 25.3823 37.849 25.9944C39.6392 27.7846 40.6251 30.1652 40.6251 32.6975C40.6251 35.2298 39.6392 37.6104 37.849 39.4033C34.2686 42.981 28.0259 42.981 24.4455 39.4033C22.6526 37.6104 21.6667 35.2298 21.6667 32.6975C21.6667 30.1652 22.6526 27.7846 24.4428 25.9916C25.0684 25.3687 25.4801 24.6266 25.7292 23.8412ZM43.5934 45.1477C40.2676 48.4735 35.8503 50.3016 31.1459 50.3016C26.4415 50.3016 22.0242 48.4708 18.6984 45.1477C15.3753 41.8219 13.5417 37.4019 13.5417 32.6975C13.5417 27.9931 15.3753 23.5731 18.6984 20.2473C18.9499 19.9958 19.2484 19.7964 19.5769 19.6603C19.9055 19.5242 20.2576 19.4541 20.6132 19.4541C20.9688 19.4541 21.3209 19.5242 21.6495 19.6603C21.978 19.7964 22.2765 19.9958 22.528 20.2473C22.7794 20.4987 22.9789 20.7972 23.115 21.1258C23.2511 21.4543 23.3211 21.8065 23.3211 22.1621C23.3211 22.5177 23.2511 22.8698 23.115 23.1983C22.9789 23.5269 22.7794 23.8254 22.528 24.0769C20.2259 26.3816 18.9584 29.4421 18.9584 32.6975C18.9584 35.9529 20.2259 39.016 22.528 41.3181C24.8301 43.6202 27.8878 44.885 31.1459 44.885C34.404 44.885 37.4617 43.6175 39.7638 41.3181C42.0686 39.016 43.3334 35.9556 43.3334 32.6975C43.3334 29.4394 42.0659 26.3789 39.7638 24.0769C39.5124 23.8254 39.3129 23.5269 39.1768 23.1983C39.0407 22.8698 38.9707 22.5177 38.9707 22.1621C38.9707 21.8065 39.0407 21.4543 39.1768 21.1258C39.3129 20.7972 39.5124 20.4987 39.7638 20.2473C40.0153 19.9958 40.3138 19.7964 40.6423 19.6603C40.9709 19.5242 41.323 19.4541 41.6786 19.4541C42.0342 19.4541 42.3863 19.5242 42.7149 19.6603C43.0434 19.7964 43.342 19.9958 43.5934 20.2473C46.9165 23.5758 48.7501 27.9958 48.7501 32.6975C48.7501 37.3991 46.9165 41.8219 43.5934 45.1477Z" fill="#265235"/>
</svg>
