<svg width="65" height="65" viewBox="0 0 65 65" fill="none" xmlns="http://www.w3.org/2000/svg">
<path d="M60.9375 48.75H52.8125V40.625H48.75V48.75H40.625V52.8125H48.75V60.9375H52.8125V52.8125H60.9375V48.75Z" fill="#265235"/>
<path d="M31.2812 60.9375L10.1562 48.3438C8.9375 47.5312 8.125 46.3125 8.125 44.8906V20.1094C8.125 18.6875 8.9375 17.2656 10.1562 16.6562L30.4688 4.67187C31.0781 4.26562 31.6875 4.0625 32.5 4.0625C33.3125 4.0625 33.9219 4.26562 34.5312 4.67187L54.8438 16.6562C56.0625 17.4688 56.875 18.6875 56.875 20.1094V32.5H52.8125V20.1094L32.5 8.125L12.1875 20.1094V44.8906L33.5156 57.4844L31.2812 60.9375Z" fill="#265235"/>
</svg>
