<svg width="53" height="47" viewBox="0 0 53 47" fill="none" xmlns="http://www.w3.org/2000/svg">
<g clip-path="url(#clip0_1290_7893)">
<path d="M43.1537 21.2326C43.1537 21.2326 43.8514 24.6475 44.0074 25.3635H40.9414C41.2443 24.5465 42.4102 21.3703 42.4102 21.3703C42.3918 21.3979 42.7131 20.535 42.8967 20.0025L43.1537 21.2326ZM52.875 7.34375V39.6562C52.875 42.0889 50.9014 44.0625 48.4688 44.0625H4.40625C1.97363 44.0625 0 42.0889 0 39.6562V7.34375C0 4.91113 1.97363 2.9375 4.40625 2.9375H48.4688C50.9014 2.9375 52.875 4.91113 52.875 7.34375ZM13.999 30.4031L19.8006 16.1562H15.8992L12.2916 25.8867L11.8969 23.9131L10.6117 17.3588C10.4006 16.45 9.74883 16.193 8.94102 16.1562H3.00176L2.9375 16.4408C4.38789 16.808 5.68223 17.3404 6.81133 18.0105L10.0977 30.4031H13.999ZM22.6646 30.4215L24.9779 16.1562H21.2877L18.9836 30.4215H22.6646ZM35.507 25.7582C35.5254 24.1334 34.534 22.8941 32.4135 21.8752C31.1191 21.2234 30.3297 20.7828 30.3297 20.1127C30.348 19.5068 30.9998 18.8826 32.4502 18.8826C33.6527 18.8551 34.534 19.1396 35.1949 19.4242L35.5254 19.5803L36.0303 16.4959C35.3051 16.2113 34.1484 15.89 32.7256 15.89C29.0812 15.89 26.5201 17.8361 26.5018 20.6084C26.4742 22.6555 28.3377 23.7938 29.733 24.4822C31.1559 25.1799 31.6424 25.6389 31.6424 26.2539C31.624 27.2086 30.4857 27.6492 29.4301 27.6492C27.9613 27.6492 27.1719 27.4197 25.9693 26.8873L25.4828 26.6578L24.9688 29.8615C25.8316 30.2562 27.4289 30.6051 29.0812 30.6234C32.9551 30.6326 35.4795 28.7141 35.507 25.7582ZM48.4688 30.4215L45.4945 16.1562H42.6396C41.7584 16.1562 41.0883 16.4133 40.7119 17.3404L35.2316 30.4215H39.1055C39.1055 30.4215 39.7389 28.659 39.8766 28.2826H44.6133C44.7234 28.7875 45.0539 30.4215 45.0539 30.4215H48.4688Z" fill="black"/>
</g>
<defs>
<clipPath id="clip0_1290_7893">
<rect width="52.875" height="47" fill="white"/>
</clipPath>
</defs>
</svg>
