<svg width="20" height="20" viewBox="0 0 20 20" fill="none" xmlns="http://www.w3.org/2000/svg">
<path opacity="0.8" fill-rule="evenodd" clip-rule="evenodd" d="M14.5433 11.9682C14.2965 11.8453 13.0834 11.2512 12.8572 11.1692C12.631 11.0873 12.4665 11.0463 12.302 11.2922C12.1375 11.538 11.6647 12.0911 11.5207 12.255C11.3768 12.4189 11.2329 12.4394 10.9861 12.3165C10.7394 12.1936 9.94434 11.9342 9.00188 11.0976C8.26836 10.4465 7.77315 9.64228 7.62919 9.39644C7.48527 9.1506 7.61386 9.01772 7.73743 8.89528C7.84838 8.7853 7.98413 8.6085 8.10751 8.46509C8.23089 8.32167 8.27201 8.21925 8.35426 8.05539C8.43651 7.89148 8.39539 7.74807 8.33367 7.62515C8.27201 7.50223 7.77856 6.29354 7.57293 5.80187C7.37266 5.32304 7.16922 5.38783 7.01776 5.38032C6.87399 5.37319 6.70935 5.37168 6.54485 5.37168C6.38034 5.37168 6.11305 5.43316 5.88684 5.67895C5.66068 5.92479 5.02326 6.51893 5.02326 7.72757C5.02326 8.93626 5.90743 10.104 6.0308 10.2679C6.15418 10.4318 7.77073 12.9122 10.2459 13.9758C10.8346 14.2288 11.2943 14.3799 11.6526 14.4931C12.2437 14.68 12.7816 14.6537 13.2068 14.5904C13.6808 14.5199 14.6666 13.9963 14.8723 13.4227C15.0778 12.8491 15.0778 12.3574 15.0162 12.255C14.9545 12.1526 14.79 12.0911 14.5433 11.9682ZM10.0412 18.086H10.0378C8.56501 18.0855 7.12046 17.6917 5.86028 16.9475L5.56054 16.7704L2.45404 17.5814L3.28324 14.5671L3.08805 14.2581C2.26644 12.9575 1.83252 11.4543 1.83313 9.91082C1.83494 5.40699 5.517 1.74281 10.0444 1.74281C12.2367 1.74366 14.2976 2.59446 15.8472 4.13842C17.3969 5.68244 18.2498 7.73479 18.249 9.91744C18.2471 14.4216 14.5651 18.086 10.0412 18.086ZM17.0267 2.96524C15.1622 1.10758 12.6828 0.0840467 10.0411 0.0830078C4.59801 0.0830078 0.16801 4.4915 0.165828 9.91026C0.165116 11.6424 0.619818 13.3332 1.48397 14.8236L0.0830078 19.9163L5.31801 18.5497C6.76038 19.3327 8.38433 19.7453 10.0371 19.746H10.0412C15.4837 19.746 19.9141 15.3369 19.9163 9.9181C19.9173 7.29209 18.8911 4.82286 17.0267 2.96524Z" fill="#141E15"/>
</svg>
