<svg width="65" height="65" viewBox="0 0 65 65" fill="none" xmlns="http://www.w3.org/2000/svg">
<path fill-rule="evenodd" clip-rule="evenodd" d="M26.4049 18.9583C24.9684 18.9583 23.5906 18.3877 22.5748 17.3718C21.559 16.356 20.9883 14.9783 20.9883 13.5417C20.9883 12.1051 21.559 10.7273 22.5748 9.7115C23.5906 8.69568 24.9684 8.125 26.4049 8.125C27.8415 8.125 29.2193 8.69568 30.2351 9.7115C31.2509 10.7273 31.8216 12.1051 31.8216 13.5417C31.8216 14.9783 31.2509 16.356 30.2351 17.3718C29.2193 18.3877 27.8415 18.9583 26.4049 18.9583ZM26.4049 16.25C25.6867 16.25 24.9978 15.9647 24.4899 15.4567C23.982 14.9488 23.6966 14.26 23.6966 13.5417C23.6966 12.8234 23.982 12.1345 24.4899 11.6266C24.9978 11.1187 25.6867 10.8333 26.4049 10.8333C27.1232 10.8333 27.8121 11.1187 28.32 11.6266C28.8279 12.1345 29.1133 12.8234 29.1133 13.5417C29.1133 14.26 28.8279 14.9488 28.32 15.4567C27.8121 15.9647 27.1232 16.25 26.4049 16.25Z" fill="#265235"/>
<path d="M17.6055 29.7918C17.6055 29.0735 17.8908 28.3847 18.3987 27.8767C18.9066 27.3688 19.5955 27.0835 20.3138 27.0835V32.5002C19.5955 32.5002 18.9066 32.2148 18.3987 31.7069C17.8908 31.199 17.6055 30.5101 17.6055 29.7918Z" fill="#265235"/>
<path fill-rule="evenodd" clip-rule="evenodd" d="M44.6875 28.7571C43.9434 29.4245 42.9787 29.793 41.9792 29.7917H35.2083V52.8125C35.2083 53.8899 34.7803 54.9233 34.0185 55.6851C33.2566 56.447 32.2233 56.875 31.1458 56.875C30.0684 56.875 29.0351 56.447 28.2732 55.6851C27.5113 54.9233 27.0833 53.8899 27.0833 52.8125V41.9792H25.7292V52.8125C25.7292 53.7618 25.4042 54.6352 24.8571 55.3272C24.3344 55.9902 23.6182 56.4739 22.8079 56.7111C21.9976 56.9483 21.1336 56.9271 20.3359 56.6505C19.5382 56.374 18.8465 55.8557 18.3569 55.1679C17.8673 54.4801 17.6042 53.6568 17.6042 52.8125V37.5348C15.4876 36.5598 12.1875 33.7323 12.1875 29.2107C12.1875 23.5137 17.4295 21.6667 18.938 21.6667H41.9792C43.0192 21.6667 43.9698 22.058 44.6875 22.7012V20.3125H43.3333C42.2559 20.3125 41.2226 19.8845 40.4607 19.1226C39.6988 18.3608 39.2708 17.3274 39.2708 16.25V8.125H41.9792V16.25C41.9792 16.6091 42.1218 16.9536 42.3758 17.2075C42.6297 17.4615 42.9742 17.6042 43.3333 17.6042H44.6875V8.125H47.3958V17.6042H48.75C49.1091 17.6042 49.4536 17.4615 49.7075 17.2075C49.9615 16.9536 50.1042 16.6091 50.1042 16.25V8.125H52.8125V16.25C52.8125 17.3274 52.3845 18.3608 51.6226 19.1226C50.8608 19.8845 49.8274 20.3125 48.75 20.3125H47.3958V55.5208C47.3958 55.88 47.2532 56.2244 46.9992 56.4784C46.7453 56.7323 46.4008 56.875 46.0417 56.875C45.6825 56.875 45.3381 56.7323 45.0841 56.4784C44.8302 56.2244 44.6875 55.88 44.6875 55.5208V28.7571ZM18.7376 35.0743L20.3125 35.8001V52.8125C20.3125 53.1716 20.4552 53.5161 20.7091 53.77C20.9631 54.024 21.3075 54.1667 21.6667 54.1667C22.0258 54.1667 22.3703 54.024 22.6242 53.77C22.8782 53.5161 23.0208 53.1716 23.0208 52.8125V39.2708H29.7917V52.8125C29.7917 53.1716 29.9343 53.5161 30.1883 53.77C30.4422 54.024 30.7867 54.1667 31.1458 54.1667C31.505 54.1667 31.8494 54.024 32.1034 53.77C32.3573 53.5161 32.5 53.1716 32.5 52.8125V27.0833H41.9792C42.3383 27.0833 42.6828 26.9407 42.9367 26.6867C43.1907 26.4328 43.3333 26.0883 43.3333 25.7292C43.3333 25.37 43.1907 25.0256 42.9367 24.7716C42.6828 24.5177 42.3383 24.375 41.9792 24.375H18.938C18.9489 24.375 18.9461 24.375 18.9272 24.3791C18.8608 24.3885 18.6022 24.4292 18.1919 24.5822C17.6434 24.7879 17.1293 25.0755 16.6671 25.4353C15.7151 26.1801 14.8958 27.323 14.8958 29.2107C14.8958 32.3023 17.1884 34.3606 18.7376 35.0743Z" fill="#265235"/>
</svg>
