<svg width="50" height="50" viewBox="0 0 50 50" fill="none" xmlns="http://www.w3.org/2000/svg">
<path d="M27.4717 38.59C27.4001 38.5222 27.3426 38.441 27.3025 38.351C27.2623 38.261 27.2403 38.164 27.2377 38.0654C27.2351 37.9669 27.2519 37.8688 27.2872 37.7768C27.3225 37.6848 27.3756 37.6006 27.4435 37.5291L39.3335 24.989L8.15575 25.8187C7.95691 25.824 7.76411 25.7501 7.61976 25.6132C7.47542 25.4764 7.39135 25.2878 7.38606 25.0889C7.38077 24.8901 7.45469 24.6973 7.59155 24.5529C7.72841 24.4086 7.91701 24.3245 8.11585 24.3192L39.2936 23.4896L26.7535 11.5996C26.6819 11.5318 26.6245 11.4505 26.5844 11.3605C26.5442 11.2705 26.5222 11.1735 26.5196 11.075C26.517 10.9765 26.5338 10.8784 26.5691 10.7864C26.6044 10.6944 26.6574 10.6102 26.7252 10.5387C26.793 10.4672 26.8743 10.4097 26.9643 10.3696C27.0543 10.3295 27.1513 10.3075 27.2498 10.3049C27.3483 10.3022 27.4464 10.3191 27.5384 10.3543C27.6304 10.3896 27.7146 10.4427 27.7861 10.5105L41.6404 23.6466C41.712 23.7143 41.7695 23.7956 41.8097 23.8856C41.8498 23.9756 41.8718 24.0726 41.8744 24.1712C41.8771 24.2697 41.8602 24.3678 41.8249 24.4598C41.7896 24.5518 41.7365 24.636 41.6687 24.7074L28.5326 38.5618C28.4648 38.6333 28.3836 38.6908 28.2936 38.731C28.2035 38.7711 28.1065 38.7932 28.008 38.7958C27.9095 38.7984 27.8114 38.7816 27.7194 38.7463C27.6273 38.711 27.5432 38.6579 27.4717 38.59Z" fill="black"/>
</svg>
